<svg xmlns="http://www.w3.org/2000/svg" width="4500" height="4500" viewBox="0 0 4500 4500">
  <defs>
    <style>
      .cls-1 {
        fill-rule: evenodd;
      }
    </style>
  </defs>
  <path id="Forma_316_3" data-name="Forma 316 3" class="cls-1" d="M2219.5,286.923l14.94,1.017v1.017h-8.05c0.39,0.678.77,1.356,1.15,2.034l24.13-1.017c-0.77-1.017-1.53-2.034-2.3-3.051,70.19,0.6,120.23-6.887,186.12,0v1.017c-6.57-.093-10.46.5-13.78,3.051,23.39,0.794,94.03,10.241,109.14,4.067l-42.51-4.067,93.06,3.05,31.02,9.152c13.1,2,26.57-3.855,40.22-1.017C2725.57,317.35,2808.73,331.6,2875.52,352l51.7,7.118c56.14,15.153,105.3,37.793,157.4,55.927l-4.59-5.084c23.15,4.678,54.06,23.731,80.42,37.623,38.72,20.41,82,29.683,121.78,51.859,33.17,18.491,65.73,45.988,105.7,56.943-0.24,4.008-1.9,2.529,1.15,5.084,35.91,18.4,93.35,43.034,117.19,71.179-1.92-.677-3.83-1.355-5.75-2.033l3.45,4.067c1.88,0.753,79.16,50.707,79.27,50.842,4.26,5.147,7.44,13.081,14.94,18.3,13.79,9.6,37.45,21.543,45.95,26.437q13.785,14.235,27.58,28.472,24.12,19.827,48.25,39.657c22.09,18.307,39.47,41.177,63.19,57.96,24.25,17.156,32.52,52.107,59.74,66.1,2.55-2.677,8.98,6.146,16.09,11.185,10.34,19.107,34.02,30.127,42.51,51.859l-3.45-2.033q12.06,14.742,24.13,29.488c-4.05,1.37-.82,2.68,4.59,6.1l54,68.13c1.77-1.96.92-1.29,3.45,1.02-2.19,2.56-2.23-.02-1.15,3.05,6.19,13.86,15.74,12.73,21.83,25.42h-1.15c-1.53-1.02-3.07-2.04-4.6-3.05,6,20.68,24.48,30.8,35.62,46.77q21.825,38.64,43.66,77.28-4.02-2.025-8.05-4.06c14.2,34.59,51.36,65.08,60.9,98.63,0.76-.68,1.53-1.36,2.29-2.03v-7.12c2.6,26.75,22.32,44.56,28.73,66.09-1.15-.68-2.3-1.35-3.45-2.03q12.06,20.835,24.13,41.69c-5.28-1.18-4.27.42-5.75-1.02q-5.16-6.6-10.34-13.22,10.92,25.425,21.83,50.85c11.33,25.62,16.24,49.98,25.28,78.29,4.17,13.09,15.6,41.31,9.19,54.91-0.77-.34-1.53-0.68-2.3-1.01,0-10.65-2.76-17.49-9.19-22.37q5.175,18.3,10.34,36.6a22.351,22.351,0,0,1,4.59-4.07c0.39,3.05.77,6.11,1.15,9.16-1.91-1.02-3.83-2.04-5.74-3.05,5.01,9.72,10.34,18.45,11.49,31.52-2.43.73-1.03-.96-2.3,1.01q-4.02-7.62-8.04-15.25c3.34,18.59,12,39.59,17.23,60,3.66,14.25-2.66,30.64,4.6,43.72,4.29-.17,7.52,12.18,8.04,19.32h-1.15c-0.77-3.05-1.53-6.1-2.3-9.15h-1.15c2.62,22.21,12.34,36.95,12.64,63.04h-1.15v-2.03q-5.16-12.705-10.34-25.42c14.21,56,18.4,125.85,10.34,185.06-0.76-.34-1.53-0.67-2.29-1.01-9.34-33.52-11.56-70.1-19.54-107.79-4.46-21.09,4.22-40.13-1.14-59.99-1.81-6.69-6.63-8.49-8.05-12.21q-14.355-76.755-28.72-153.54c-3.9-13.95-14.44-21.99-17.23-37.62-0.77.34-1.54,0.68-2.3,1.02,0.45,24.96,16.21,37.64,17.23,64.06h-2.3q-2.3-7.125-4.59-14.24l8.04,28.47q-1.14,19.32-2.3,38.64c2.62,14.88,14.73,40.11,6.9,57.96-4.92-58.6-29.6-111.18-37.92-160.66-2.31-13.74-15.1-22.32-17.23-38.64,0.77,1.02,1.53,2.03,2.3,3.05h1.15q-9.2-20.835-18.39-41.69h-1.14c-0.62,5.73-.59,4.42-4.6,4.07,22.01,52.51,48.77,112.11,54,174.9h-1.15l-3.45-11.19h-1.15c2.41,22,10.02,39.01,10.34,64.06-2.29-.68-4.59-1.35-6.89-2.03q-7.47-18.81-14.94-37.63-6.885-33.54-13.78-67.11-20.1-50.835-40.21-101.68-9.195-33.045-18.39-66.1-22.395-36.6-44.8-73.21-6.9-25.425-13.79-50.84-16.08-22.875-32.17-45.76l-55.15-99.65-28.72-26.44q-8.61-15.75-17.23-31.52-25.845-34.065-51.7-68.13c-37.69-47.07-85.35-87.79-125.23-134.223,2.3,1.017,4.59,2.034,6.89,3.051-9.69-16.39-39.05-15.12-48.25-36.606q14.925,10.167,29.87,20.336-21.825-18.3-43.66-36.606c-58.05-64.109-127.27-112.386-202.21-161.678-27.03-17.783-51.12-40.389-79.27-57.96-186.4-116.345-414.75-204.65-677.85-251.161l-212.54-24.4-99.96-4.067-126.38,4.067L2221.8,418.1c-26.07-3.593-54.84,4-78.13,8.135L2012.7,443.517c-130.05,25.523-254.63,65.3-367.65,108.8C1497.72,609.028,1371.34,682,1250.98,762.807q-21.825,18.808-43.66,37.623c-31.82,22.706-72.01,47.093-97.65,75.246-32.82,36.03-75.61,65.233-106.85,101.685q-44.8,50.834-89.616,101.689v-5.09c-3.47,12.49-13.211,18.62-20.68,29.49q-16.658,27.96-33.318,55.93c-3.2,4.49-18.02,24.45-21.829,20.33-10.707,13.03-10.018,29.9-24.127,39.66-0.271-4.54,1.242-2.31-1.149-5.08v2.03l-49.4,91.51c-2.19,6.18-18.14,20.5-22.978,31.53-14.6,33.27-20.055,65.85-40.212,94.56-14.953,21.31-37.953,63.88-41.36,105.76H657c-0.61-2.95.912-4.98-2.3-3.06-0.583,6.44-3,12.63-6.893,16.27,0.262-15.57,7.259-27.83,12.638-40.67L657,1513.24c26.982-80.91,68.908-155.9,106.848-226.76l-3.447,1.02c9.27-25.12,25.145-42.54,39.062-63.05,28.4-41.84,53.224-83.54,83.87-122.02,14.478-18.18,24.506-46.24,41.36-59.99q-2.3,4.575-4.6,9.15c15.094-10.32,12.051-23.95,26.424-34.57,1,2.65-.463,3.55,2.3,2.03,10.536-29.114,64.46-82.306,90.76-99.649v3.05c-6.43,7.082-14.11,9.808-18.38,19.32,16.45-11.039,27.34-28.546,39.06-43.724,0.77,0.339,1.54.678,2.3,1.017q-4.59,5.592-9.19,11.185c21.05-10.885,33.25-36.336,48.25-52.876,13.28-14.634,33.75-24.983,50.55-36.606q22.41-20.336,44.81-40.674c100.66-70.7,206.96-138.49,320.54-197.268q45.39-17.793,90.77-35.589c68.75-26.753,142.68-58.843,217.14-81.348l144.76-33.556c-116.34,12.292-221.9,55.292-314.8,91.516-126.79,49.44-242.6,106.744-349.26,173.88q-55.14,40.671-110.3,81.348c-60.81,42.448-119.43,84.721-166.59,139.308q-73.518,78.8-147.056,157.606c-36.556,61.76-87.621,113.56-118.336,174.9q-17.806,33.045-35.616,66.1-11.488,15.24-22.978,30.5c-7.633,15.14-7.144,39.69-19.532,50.84v-8.13l-2.3,1.02c-2.748,11.92-7.637,12.72-11.489,23.38-8.7,24.1-14.172,47.96-22.978,68.13h-1.149q1.724-6.6,3.447-13.22c-2.18,1.4-1.881.99-3.447,3.05-13.561,23.03-17.792,45.36-21.829,74.23-1.149-1.69-2.3-3.39-3.447-5.08-0.452,6.2-2,8.17-5.744,11.18v-8.13Q609.9,1570.68,603,1596.62h-1.149v-10.17c-3.933,22.72-12.56,47.32-17.234,74.23h-1.148c-0.383-1.69-.766-3.39-1.149-5.08,0.139,26.95-9.376,48.49-13.787,73.21h-1.149c-0.435-13.55-9.159-17.87-5.744-31.52q4.594-10.68,9.191-21.36c2.273-10.67.726-33.78,5.744-48.81q8.616-19.815,17.234-39.65c12.2-41.83,11.369-70.58,27.573-107.79,13.914-31.95,32.235-61.18,41.361-97.62l2.3,3.06c2.152-19.83,14.134-33.23,18.383-50.85-0.383-.34-0.766-0.67-1.149-1.01-0.766.34-1.532,0.67-2.3,1.01-7.648,28.07-37.4,94.04-55.147,113.89,6.5-34.1,33.462-63.18,35.616-95.58H659.3c-1.115,19.58-23.276,60.69-34.467,74.23,3.737-24.32,24-89.25,40.211-101.69,0.875,1.21-.454,1.25,1.149,1.02,1.149-1.7,2.3-3.39,3.447-5.09l-3.447,1.02q8.042-13.725,16.085-27.45c0.61,2.94-.912,4.97,2.3,3.05,6.763-19.83,31.628-79.03,47.1-90.5q-1.147,3.045-2.3,6.1l2.3-1.02c12.664-45.45,61.251-99.72,88.465-133.2,8.794-10.83,10.685-25.45,19.532-35.59,17.647-20.24,44.148-38.05,57.445-58.981l-2.3,1.016-5.745,7.118c3.464-11.505,5.529-19.336,17.234-27.454l-1.149,4.067,6.893-2.034c5.965-13.391,16.981-29.044,28.723-37.623l-1.149,4.067,2.3-1.017c7.263-25.1,28.6-23.431,44.807-41.69q29.289-33.552,58.6-67.112c9.15-10.377,26.33-17.634,36.76-27.455-0.76-.677-1.53-1.355-2.3-2.033-29.75,15.138-83.69,59.782-101.1,86.431l3.447-2.033c-3.04,10.591-9.327,6.291-18.382,11.185l-37.914,38.64c-8.55,9.771-12.126,26.433-21.829,35.59-1.619,1.528-12.759,4.8-17.233,10.168l-6.894,12.2-4.595-1.017q-4.022,8.135-8.043,16.265-16.083,13.74-32.169,27.46c-9.953,17.33-13.172,30.28-29.871,43.72-1-2.64.463-3.55-2.3-2.03-9.114,40.26-46.658,73.52-68.934,104.74-20.061,28.11-35.775,61.33-57.445,87.44q-9.19,22.38-18.382,44.74-14.934,20.85-29.871,41.7-10.914,31.005-21.829,62.02c-16.088,36.68-34.634,75.8-48.254,111.86l-2.3,28.47c-0.428-7.74-1.454-5.99,0-17.29h-1.149l-6.893,25.42c2.506-.5,1.062-0.97,2.3,1.02q-2.3,8.13-4.6,16.27h-1.149q1.149-6.1,2.3-12.2h-1.149c-2.547,12.57-5.686,30.55-14.936,37.62-0.383-1.02-.766-2.03-1.149-3.05-0.4,11.78-2.89,26.44-9.191,33.56h-1.149c-3.374-28.43,19.533-59.91,26.425-84.4,3.744-13.31,5.807-23.77,9.191-45.76H555.9l-1.149,9.15,2.3-1.02,1.149-19.32q0.574,3.06,1.149,6.1c1.854-25.25,19.136-40.71,24.127-65.07-0.766.34-1.532,0.67-2.3,1.01-0.383,1.7-.766,3.39-1.149,5.09h-1.149v-8.14c-1.832,6.93-5.258,16.91-10.34,21.36l1.149-9.15q-5.743,15.75-11.489,31.52-1.723,11.175-3.447,22.37v-2.04l-2.3,1.02c1.055,7.2-.433,12.45-2.3,19.32-2.913-2.49-.623-1.24-3.447-2.03-3.646,22.5-10.155,23.85-11.489,44.74h-1.149c-0.383-2.37-.766-4.75-1.149-7.12-1.9,9.19-37.762,97.66-39.062,98.63,0.25-19.43,5.578-34.89,10.34-49.82,1.538,1.45,1.433,1.79,3.446,3.05q5.171-20.34,10.34-40.67v2.03l-2.3-1.02c2.635-25.93,18.318-43.67,26.424-64.06q2.872-17.28,5.745-34.57c1.914,1.02,3.83,2.03,5.744,3.05q5.171-15.765,10.34-31.52c-0.766.34-1.532,0.68-2.3,1.01-0.383,1.36-.766,2.72-1.149,4.07h-1.149v-3.05c6.256-16.1,13.985-29.22,14.935-49.82,1.149,0.67,2.3,1.35,3.447,2.03,1.272-9.05,5.118-15.8,11.489-20.34h1.149c-1.041,6.6-1.3,4.75,4.6,7.12v-2.03c4.474-8.86,7.268-23.81,10.34-33.56l-6.894,11.19v-3.05q4.6-11.19,9.191-22.37h1.149c-0.383,1.35-.766,2.71-1.149,4.06,1.149-.34,2.3-0.68,3.447-1.01q1.149-2.04,2.3-4.07l-4.6,1.02q2.872-7.125,5.745-14.24c-3.463,1.25-2.1,1.32-5.745,1.02-0.8-6.75-1.916-10.28,2.3-14.24,0.439,2.11,5.721,4.41,5.745,4.07q13.211-20.85,26.424-41.69l-10.34,9.15c10.689-37.09,41.908-67.75,60.892-100.67,7.848-13.61,14.689-33.81,29.871-40.67,1.252,1.98-.051,1.93,2.3,1.01,4.322-12.33,14.473-20.51,21.829-30.5-1.149.68-2.3,1.35-3.447,2.03,3.866-11.51,13.4-27.53,22.978-34.57-0.766,2.37-1.532,4.75-2.3,7.12q2.3-1.53,4.6-3.05c8.023-23.88,28.814-39.98,40.211-58.98-1.435-1.59-.97-0.19,0-2.03,2.836-6.83,44.533-52.352,57.445-56.947l-1.149,2.034c4.284-1.73,35.014-36.74,35.616-39.657l-4.6,2.034,10.34-10.169,2.3-4.067-10.341,5.084,4.6-6.1c-3.768,1.293-1.376.932-5.744,1.017-8.185,21.651-28.3,32.939-37.914,51.859h-1.149l1.149-6.1c-5.979,3.479-5.158,3.905-10.34,10.168l-3.447-1.017,1.149-4.067-4.6,3.051-6.893,11.185,10.34-6.1c-7.055,16.34-24.079,33.931-39.062,43.725l5.744-9.152c-10.073,4.312-17.717,10.842-21.829,20.332l9.191-8.13c0.383,0.68.766,1.36,1.149,2.03l-2.3,2.04q-5.743,9.15-11.489,18.3l3.447-1.02c-2.153,6.03-18.333,24.31-26.425,27.46,0.383-1.36.766-2.71,1.149-4.07-1.148.68-2.3,1.36-3.446,2.03q-4.021,7.125-8.043,14.24h4.6c-0.766.68-1.532,1.36-2.3,2.03-9.783,22.63-47.318,74.92-67.785,88.47-0.383-1.02-.766-2.03-1.149-3.05,8.746-19.77,22.222-48.51,39.063-62.03q-2.872,6.105-5.745,12.2c1.149-.67,2.3-1.35,3.447-2.03q6.893-13.215,13.787-26.44h-3.447c4.48-16.67,16.775-36.12,32.169-42.71-0.383,1.36-.766,2.72-1.149,4.07l2.3-1.02c1.814-6.71,3.186-7.84,6.893-15.25-1.914,1.36-3.829,2.71-5.744,4.07,8.462-23.83,31.661-38.883,47.105-56.944,16.222-18.971,27.287-42.3,48.254-56.943L863.8,919.4l2.3-1.017,5.745-11.186c1.328,2.816.355,0.535,3.447,0-0.118-10.422,14.34-26.293,26.424-29.488-1.861,5.488.85,2.676-1.149,8.135l2.3-1.017c5.7-17.276,23.161-33.09,37.914-42.708l-6.894,9.152c10.644-5.9,15.911-12.355,22.978-21.354-1.39-1.575-1.157-.566,1.149-3.05,3.872-7.319,12.832-9.2,17.234-15.253,34.265-47.131,88.475-80.655,132.125-109.819q20.1-17.284,40.21-34.573,16.08-11.184,32.17-22.37c-1.92.677-3.83,1.355-5.75,2.033,5.91-7.013,16.4-14.145,27.58-16.269q-0.585,2.541-1.15,5.084c14.94-8.156,20.69-25.069,35.61-31.522q-1.71,2.033-3.44,4.067c12.1-5.981,10.8-14.118,25.27-19.32q-2.865,3.559-5.74,7.118l22.98-15.253q-4.6,6.1-9.19,12.2,8.61-9.152,17.23-18.3c7.23-4.2,14.97-3.928,20.68-9.151-1.53-.339-3.06-0.678-4.6-1.017,14.45-1.976,28.18-12.407,35.62-21.354l-3.45,1.017c6.32-4.452,7.97.88,13.79-3.051h-4.6c2.66-3.986,4.48-4.978,9.2-7.117q-1.155,2.541-2.3,5.084,10.335-4.575,20.68-9.152l-6.9,7.118c8.93-4.062,20.46-9.285,27.58-13.219q5.16-6.609,10.34-13.219c16.33-10.059,34.14-12.062,50.55-19.32,34.42-15.22,69.48-34.387,101.1-46.775-0.38,1.017-.76,2.034-1.15,3.051l43.66-22.371c26.15-10.113,55.5-17.822,80.42-27.455,0.77,0.678,1.54,1.356,2.3,2.034-4.19,1.077-3.38.827-5.74,3.051,16.79-2.509,35.56-13.526,45.95-18.3,8.85-4.066,17.3.424,28.73-6.1-1.5-2.9-1.74-.613-1.15-4.067,44.04-6.585,71.9-31.192,118.33-33.556-2.51,2-3.67,2.321-8.04,3.051v1.017l41.36-10.169-4.59-1.017c-0.42,2.551-1,2-5.75,3.051l3.45-4.068c7.91-1.3,13.79-1.33,19.53-5.084h-3.45c10.68-4.088,29.17-.719,37.92-6.1h-8.05q9.765-2.034,19.54-4.067v1.017h-2.3c-1.92,1.355-3.83,2.711-5.75,4.067,1.37,0.774,1.41-.4,1.15,1.017l-19.53,5.084c13.63-.365,33.51-2.866,41.36-9.152l-11.49,2.034,11.49-7.118L1958.7,315.4q24.705-5.084,49.4-10.168c16.48-3.307,16.03,6.136,29.87,4.067,0.77-.339,1.54-0.678,2.3-1.017-5.06-.114-5.67.093-8.04-2.034,13.31-1.483,21.71-6,35.62-5.084-0.77.339-1.54,0.678-2.3,1.017l-22.98,6.1c3.77,1.427.3,1.5-1.15,4.068l22.98-4.068c-6.47,1.043-13.09,2.657-17.23,0,17.62,0,84.83-19.253,96.5-14.236v1.017l-8.04,1.017c0.38,0.678.77,1.356,1.15,2.034,13.98,0.413,24.95.456,36.76-2.034q-3.435-1.526-6.89-3.051l52.85-1.016v-5.085Zm212.55-2.033h12.63C2440.89,288.407,2437.03,287.977,2432.05,284.89Zm18.38,0q9.2,1.524,18.38,3.05l-18.38-1.017V284.89Zm-68.93,2.033c3.97,2.18,15.36,3.258,20.68,1.017Zm-167.74,1.017,3.44,1.017v1.017C2213.87,289.434,2211.58,290.781,2213.76,287.94Zm-33.32,2.034h0Zm-88.47,5.084h0Zm-12.63,1.017,5.74,1.017Zm47.1,1.017c-2.01,1.588-2.94,2.037-4.6,4.067,4.04-1.168,4.71-1.336,6.9-4.067h-2.3Zm505.52,0h0ZM2015,310.311c-0.77.339-1.53,0.678-2.3,1.017h10.34Zm-60.89,6.1h4.59v1.017Zm-31.02,12.2c0.76,0.339,1.53.678,2.29,1.017C1924.62,329.292,1923.85,328.953,1923.09,328.614Zm888.09,2.034h0Zm4.6,1.017h0Zm-14.94,1.016h4.6V333.7ZM1897.81,333.7c0.77,0.339,1.53.678,2.3,1.017C1899.34,334.376,1898.58,334.037,1897.81,333.7Zm908.78,0h4.59v1.017Zm5.74,1.017h0Zm-973.11,1.017h3.44v1.017l-4.59,1.017C1838.45,337.088,1838.83,336.41,1839.22,335.732Zm980.01,0q3.435,1.017,6.89,2.034v1.016q-3.45-.507-6.89-1.016v-2.034Zm-990.35,5.084h4.59l-6.89,2.034v-1.017C1827.34,341.494,1828.11,341.155,1828.88,340.816Zm-5.75,2.034h0Zm-3.45,1.017h0Zm-5.74,1.017h4.6V345.9C1817,345.561,1815.47,345.222,1813.94,344.884Zm-6.89,1.016h6.89v1.017l-26.42,6.1c0.27-4.541,1.67-1.186-2.3-4.067Zm33.31,1.017q-9.18,3.56-18.38,7.118,8.625-2.034,17.24-4.067-5.175,3.049-10.34,6.1,14.355-4.575,28.72-9.152h-17.24Zm1061.59,4.068h0ZM1772.58,358.1l5.74,1.016c-0.76.339-1.53,0.678-2.29,1.017l-17.24,4.068c0.39-1.017.77-2.034,1.15-3.051Q1766.255,359.628,1772.58,358.1Zm135.57,3.05q-3.45,2.543-6.89,5.084l11.49-5.084h-4.6Zm-167.74,6.1q2.88,0.509,5.74,1.017v1.017l-9.19,1.017c0.39-.678.77-1.356,1.15-2.034C1738.88,367.932,1739.64,367.593,1740.41,367.254Zm-8.04,10.169c0.76,0.677,1.53,1.355,2.3,2.033l-6.9,2.034c0.39-.678.77-1.356,1.15-2.034Zm-31.02,3.05h4.59q-3.435,1.017-6.89,2.034V381.49C1699.82,381.151,1700.58,380.812,1701.35,380.473Zm-4.6,2.034h0Zm-3.44,1.017h0Zm121.78,3.05c-0.77.339-1.53,0.678-2.3,1.017v1.017C1815.77,387.45,1814.77,387.012,1815.09,386.574Zm-5.75,2.034c0.77,0.339,1.54.678,2.3,1.017C1810.88,389.286,1810.11,388.947,1809.34,388.608Zm-34.46,3.05q-5.175,3.559-10.34,7.118c6.36-1.354,11.19-3.491,14.93-7.118h-4.59Zm526.19,0c6.34,2.825,20.09,2.855,26.43,0h-26.43Zm-33.32,1.017-37.91,4.068c22.93,0.386,44.72-.151,64.34-3.051v-1.017h-26.43Zm189.57,0h0Zm-799.63,1.017h4.6c-1.92.678-3.83,1.356-5.75,2.034C1656.92,395.048,1657.31,394.37,1657.69,393.692Zm820.31,0h0Zm-139.01,2.034c-3.07.678-6.13,1.356-9.2,2.033v1.017l22.98-2.033Zm-33.32,2.033c-0.77.339-1.53,0.678-2.3,1.017,3.97,2.381,5.59,1.059,11.49,0v-1.017h-9.19Zm-550.32,2.034-50.56,14.236v1.017c17.54-.3,44.99-6.885,55.15-15.253h-4.59Zm397.51,1.017q-19.515,2.034-39.06,4.067l-67.78,12.2V418.1l122.93-17.286h-16.09Zm412.46,2.034c2.98,1.5,4.77,2.062,8.04,1.017Zm35.61,6.1c0.77,0.339,1.54.678,2.3,1.017C2602.47,409.623,2601.7,409.284,2600.93,408.945ZM1603.69,412h4.6q-4.605,2.034-9.19,4.068c0.76-1.017,1.53-2.034,2.29-3.051C1602.16,412.673,1602.93,412.334,1603.69,412Zm112.59,5.084-4.59,3.051C1714.2,419.474,1718.99,419.459,1716.28,417.079Zm959.33,0c-0.38.678-.76,1.356-1.15,2.034l13.79,2.034C2685.05,418.04,2682.29,417.323,2675.61,417.079ZM2040.27,418.1l4.6,1.017Zm665.21,3.051c0.77,0.678,1.54,1.356,2.3,2.034l3.45-1.017v-1.017h-5.75Zm-689.33,1.017c0.76,0.339,1.53.678,2.29,1.017C2017.68,422.842,2016.91,422.5,2016.15,422.164Zm-6.9,1.017c1.53,0.338,3.07.677,4.6,1.016C2012.32,423.858,2010.78,423.519,2009.25,423.181Zm-8.04,1.016-12.64,3.051v1.017l19.53-3.051Zm719.21,0c0.77,0.339,1.53.678,2.3,1.017C2721.95,424.875,2721.19,424.536,2720.42,424.2Zm26.42,4.068q1.155,2.033,2.3,4.067l12.64,1.017v-1.017Zm-1093.75,3.05q-4.59,2.542-9.19,5.085C1646.42,435.906,1656.49,432.713,1653.09,431.315Zm318.25,0,3.45,1.017Zm-389.48,1.017c-0.76,1.017-1.53,2.034-2.3,3.051C1581.74,433.8,1583.63,434.812,1581.86,432.332Zm-26.42,7.118c0.08,1.834,1.31,1.251-2.3,3.051C1553.91,441.484,1554.67,440.467,1555.44,439.45Zm6.89,4.067c-0.76,1.017-1.53,2.034-2.3,3.051l6.9-2.034Zm55.15,0q-10.92,6.609-21.83,13.219c10-1.274,22.14-5.509,27.57-11.185l-8.04,2.034C1615.95,446.229,1616.71,444.873,1617.48,443.517ZM1512.93,448.6h4.59q-3.435,1.016-6.89,2.033v-1.017C1511.4,449.28,1512.16,448.941,1512.93,448.6Zm94.21,6.1c-1.92,1.016-3.83,2.034-5.75,3.05v1.017l5.75-1.017V454.7Zm-105.7,2.033h0Zm369.94,2.034q-4.59,1.525-9.19,3.051v1.016c6.1-.4,8.47-1.16,11.49-4.067h-2.3Zm-379.13,1.017h4.59c-0.76,1.017-1.53,2.034-2.29,3.05h-4.6c0.77-.677,1.53-1.355,2.3-2.033v-1.017Zm1708.41,4.067h3.45l-3.45,1.017v-1.017Zm3.45,1.017h0Zm3.44,1.017h0ZM1540.5,473.006q-9.18,4.575-18.38,9.152c8.02-2.215,15.84-4.133,20.68-9.152h-2.3Zm-76.97,1.017h0Zm85.01,0-8.04,5.084C1546.1,477.949,1547.79,476.283,1548.54,474.023Zm-104.55,5.084h2.3c-1.91,1.695-3.83,3.39-5.74,5.084Q1442.275,481.65,1443.99,479.107Zm150.51,7.118q-6.885,5.083-13.79,10.168c7.34-2.489,12.9-5.075,17.24-10.168h-3.45Zm178.08,2.034q-2.3,1.524-4.6,3.05v1.017l6.9-4.067h-2.3Zm-348.12,2.033c-0.82,2.82-.26,3.378-5.74,5.084,0.77-1.016,1.53-2.033,2.3-3.05C1422.17,491.648,1423.31,490.97,1424.46,490.292Zm63.19,4.068q-3.435,2.541-6.89,5.084C1482.55,498.7,1490.57,495.605,1487.65,494.36Zm-25.27,11.185c-1.92,1.017-3.83,2.034-5.75,3.05v1.017q4.605-2.033,9.19-4.067h-3.44Zm5.74,2.034q-9.195,5.592-18.38,11.185C1453.79,517.8,1470.62,508.765,1468.12,507.579Zm-5.74,8.134-11.49,7.118v1.017C1455.35,522.77,1464.01,518.863,1462.38,515.713Zm-91.91,2.034,5.74,1.017c-0.77,1.017-1.53,2.034-2.3,3.05l-11.49,3.051c1.53-1.7,3.07-3.39,4.6-5.084Zm59.74,4.067c-11.23,9.614-29.41,12.336-39.06,23.388,13.13-1.592,33.58-13.6,39.06-22.371v-1.017Zm55.15,10.169q-2.88,3.558-5.75,7.118,5.175-3.56,10.34-7.118h-4.59Zm-110.3,20.337c-0.38.678-.76,1.356-1.15,2.033,0.77-.677,1.53-1.355,2.3-2.033h-1.15Zm-75.83,4.067h4.6l-3.45,4.068q-5.16,2.032-10.34,4.067Q1294.645,560.456,1299.23,556.387Zm63.19,1.017c-7.07,7.611-18.06,7.635-27.57,13.219h4.6c-0.39.678-.77,1.356-1.15,2.034-14.13,2-28.44,11.569-36.77,19.32,23.03-5.736,51.43-19.284,64.34-34.573h-3.45Zm-34.46,5.084c-0.39.678-.77,1.356-1.15,2.034,0.76-.678,1.53-1.356,2.3-2.034h-1.15Zm-41.36,3.051h0Zm119.48,9.151q-4.59,4.068-9.19,8.135C1401.64,580.52,1405.78,578.156,1406.08,574.69Zm-149.36,9.152h3.45c-2.49,2.709-2.31,2.842-6.89,4.067Q1255.005,585.877,1256.72,583.842Zm-8.04,5.084h2.3c-2.1,3.542-.97,2.733-5.74,4.068Q1246.95,590.96,1248.68,588.926Zm62.04,1.017-11.49,11.185c6.91-2.156,10.24-6.165,13.79-11.185h-2.3Zm60.89,2.034-16.08,10.168C1359.73,601.413,1373.92,593.1,1371.61,591.977Zm-135.57,3.05c0.77,0.678,1.54,1.356,2.3,2.034l-4.59,3.05C1234.51,598.417,1235.28,596.722,1236.04,595.027Zm51.7,1.017-12.63,11.185c1.15-.339,2.29-0.678,3.44-1.016-1.15,1.355-2.29,2.711-3.44,4.067,4.57-1.622,5.62-2.652,8.04-6.1-3.18-1.175-.6-0.315,0-3.051q4.59-2.541,9.19-5.084h-4.6Zm59.75,8.135q-12.645,8.133-25.28,16.269v4.068C1329.66,621.89,1349.18,610.294,1347.49,604.179Zm-85.02,8.135c-6.63,7.777-14.98,9.724-20.68,16.269,1.91-1.017,3.83-2.034,5.74-3.05-1.15,1.355-2.29,2.711-3.44,4.067l-42.51,22.37h3.44C1222.87,645.294,1260,627.864,1262.47,612.314Zm-51.7,9.151h3.45c-0.77.678-1.54,1.356-2.3,2.034C1211.53,622.821,1211.15,622.143,1210.77,621.465ZM3508.56,623.5l11.49,8.135C3514.56,630.063,3510.98,627.843,3508.56,623.5Zm-2202.43,6.1-19.53,12.2v1.017l4.59-1.017c-4.24,4.238-9.6,5.708-12.64,11.185,0.77-.339,1.54-0.678,2.3-1.017V654c7.96-3.567,19.05-9.112,22.98-16.269q-3.45,1.017-6.89,2.033c0.76-1.016,1.53-2.033,2.29-3.05,5.33-.95,7.4-2.243,10.34-5.084-1.91.677-3.83,1.355-5.74,2.033C1304.6,632.312,1305.36,630.956,1306.13,629.6ZM3525.8,646.886q5.16,2.034,10.34,4.068Q3530.965,648.92,3525.8,646.886ZM1168.26,647.9h3.45q-2.31,2.542-4.6,5.084c-1.91.678-3.83,1.356-5.74,2.034l1.14-3.051C1164.43,650.615,1166.34,649.259,1168.26,647.9Zm108,1.017q-6.9,5.084-13.79,10.168c2.24,1.108,2.19-.045,1.15,2.034-53.52,8.877-83.05,58.635-120.64,83.381-22.17,14.6-44.33,29.574-60.89,48.809,22.56-6.178,47.8-25.731,58.6-42.708-9.12,6.232-13.94,14.928-26.43,18.3,0.38-1.017.77-2.034,1.15-3.051,21.52-10.024,35.2-33.333,58.59-40.674l-4.59,6.1c10.75-6.806,16.35-14.133,24.13-23.387l-3.45,1.017c1.91-2.034,3.83-4.068,5.74-6.1,19.42-5.34,45.45-24.644,63.19-36.607Q1267.645,657.565,1276.26,648.92Zm-97.66,4.067-3.45,4.068Zm2371.32,6.1h0Zm-2358.68,2.034q-10.35,9.152-20.68,18.3C1174.06,677.4,1192.97,661.942,1191.24,661.122Zm-49.41,1.017h2.3c-5.46,6.947-12.61,14.735-21.83,18.3Q1132.065,671.292,1141.83,662.139Zm57.45,7.118c-0.38.678-.77,1.356-1.15,2.034C1198.51,670.613,1198.9,669.935,1199.28,669.257Zm-28.72,1.017-6.9,6.1C1167.05,674.916,1172.12,673.214,1170.56,670.274Zm-11.49,11.185c-5.79,5.9-14.33,8.784-18.38,16.269q10.335-7.116,20.68-14.235C1160.6,682.815,1159.83,682.137,1159.07,681.459Zm-49.4,3.051h4.59c-1.91,2.033-3.83,4.067-5.74,6.1q-6.9,3.558-13.79,7.117Zm37.91,2.033c-0.77,1.017-1.53,2.034-2.3,3.051l3.45-3.051h-1.15ZM1087.84,701.8h2.29q-8.04,8.133-16.08,16.269c-0.77-.339-1.53-0.678-2.3-1.016Q1079.79,709.423,1087.84,701.8Zm16.08,4.067-11.49,11.186C1096.72,714.719,1105.06,709.69,1103.92,705.863Zm17.23,6.1-4.59,6.1C1119.12,716.462,1125.05,713.283,1121.15,711.964Zm-5.74,1.017-3.45,4.068ZM1182.05,714c0.08,1.834,1.31,1.251-2.3,3.051C1180.51,716.032,1181.28,715.015,1182.05,714Zm-67.79,5.084-3.45,2.034c0.77,1.017,1.54,2.034,2.3,3.05,1.53-1.016,3.07-2.033,4.6-3.05Zm-45.95,1.017c3.49,0.894.3,1.46-1.15,3.051C1067.54,722.133,1067.92,721.116,1068.31,720.1Zm219.43,0q-1.71,2.034-3.44,4.067c1.91-1.355,3.83-2.711,5.74-4.067h-2.3Zm-203.35,1.017q-2.865,3.558-5.74,7.118C1082.39,725.921,1084.46,724.059,1084.39,721.116Zm26.42,3.05c-36.95,22.589-60.54,51.359-90.76,72.2,0.38-1.355.77-2.711,1.15-4.067q-2.3,1.526-4.6,3.051c-5.11,23.483-53.425,48.843-67.78,66.094l4.6-2.033-5.745,9.151c19.912-14.266,37.315-44.354,65.489-55.926q-6.9,7.117-13.788,14.236c21.038-6.3,40.038-38,48.258-49.826l8.04-1.017-3.45,4.068Q1081.515,752.133,1110.81,724.166Zm-60.89,7.118h2.3c-3.97,5.664-8.68,10.558-16.08,13.219Q1043.025,737.894,1049.92,731.284Zm-50.548,57.96-5.745,7.118C997.147,794.122,999.458,791.8,999.372,789.244Zm73.528,10.169c3.25,1.467.33,2.018-1.15,5.084-0.76-.678-1.53-1.356-2.3-2.034Zm-51.7,4.067c3.49,0.895.3,1.46-1.15,3.051C1020.43,805.514,1020.82,804.5,1021.2,803.48Zm155.1,0q-3.45,3.559-6.89,7.118Q1172.86,807.04,1176.3,803.48Zm-117.19,8.135h0Zm-8.04,13.219q-2.865,3.558-5.74,7.118C1049.07,829.639,1051.14,827.777,1051.07,824.834Zm-99.952,5.084,2.3,2.034-10.34,8.135,4.6-5.085Zm42.509,2.034-2.3,4.067,2.3-1.017v-3.05Zm-49.4,25.421q-0.573,2.034-1.148,4.067h1.148l1.149-3.05Zm16.085,4.067q-4.02,4.576-8.042,9.152c4.506-2.435,6.626-5.038,9.191-9.152h-1.149Zm-49.4,2.034,3.447,1.017-5.744,5.084Q909.757,866.526,910.906,863.474Zm14.936,4.067-2.3,5.085C926.206,870.291,926.93,870.8,925.842,867.541Zm17.234,0c-5.7,7.716-14.964,14.216-17.234,24.4,7.59-4.743,18.874-9.545,22.978-18.3l-3.447,2.033c-1.968,3.946-3.631,5.335-8.042,7.118,1.306-3.84,1.531-1.8,0-6.1,4.039-1.169,4.709-1.336,6.893-4.067l-3.446,1.017ZM915.5,868.558l-4.6,5.085Zm2711.4,5.085c5.7,2.085,9.08,5.17,11.49,10.168Zm-2729.78,12.2-1.149,3.05C897.546,886.714,898.064,888.347,897.12,885.845Zm24.126,5.084L913.2,900.08C916.266,898.279,924.873,892.183,921.246,890.929Zm2743.564,18.3c6.78,2.3,11.13,6.25,13.79,12.2Q3671.715,915.334,3664.81,909.232ZM956.862,916.35l-9.191,10.168A32.408,32.408,0,0,0,959.16,916.35h-2.3ZM866.1,933.636q-1.148,2.543-2.3,5.085l2.3-1.017v-4.068Zm51.7,8.135v4.067c-1.854,3.183-1.05,2.394-4.6,4.068Zm-67.785,3.051-4.6,5.084C848.742,948.2,851.282,947.861,850.015,944.822Zm-18.383,14.235q-1.722,3.051-3.446,6.1C831.53,962.813,832.448,962.546,831.632,959.057Zm97.657,5.085-2.3,5.084,2.3-1.017v-4.067Zm2803.311,0q3.45,4.575,6.89,9.151C3738.43,967.98,3737.33,966.222,3732.6,964.142Zm-2740.122,3.05-1.149,2.034,2.3-2.034h-1.149Zm-139.016,5.084-1.149,2.034,2.3-2.034h-1.148Zm-2.3,3.051L844.27,985.5l3.447-2.033Zm-37.914,4.067-4.6,6.1C812.152,983.2,813.306,982.192,813.25,979.394Zm10.34,2.034-9.191,12.2C818.759,991.05,824.908,985.845,823.59,981.428Zm74.679,0-1.149,2.034,2.3-2.034h-1.148Zm-45.956,1.017-3.447,5.084,3.447-2.034,1.149-3.05h-1.149Zm2896.367,2.034,6.9,5.084v-1.017Zm155.1,3.05c3.6,1.641,2.71.929,4.6,4.067q-2.3-1.524-4.6-3.05v-1.017ZM806.357,990.58l-5.745,7.118C805.136,996,807.211,994.023,806.357,990.58Zm3118.1,3.05q2.31,1.017,4.6,2.034c-0.38.678-.77,1.356-1.15,2.034ZM1869.09,1028.2c217.82-2.68,340.19,88.12,402.11,223.71,34.04,74.53,37.49,195.29,1.15,270.48-63.09,130.55-180.87,196.52-364.2,221.67-63.73,8.74-135.36-19.84-175.78-35.59-110.69-43.11-187.14-119.38-224.04-227.77q-4.59-28.98-9.19-57.96c-8.9-44.05-3.8-98.32,9.19-135.24,38.16-108.42,120.53-190.21,233.23-232.86,27.94-10.58,60.93-17.59,93.06-23.39Q1851.855,1029.735,1869.09,1028.2Zm954.73,0c215.87-2.59,336.91,84.63,400.97,216.59,33.35,68.71,43.27,190.61,9.19,267.43-26.48,59.67-72.52,115.47-126.38,151.51-21.45,14.35-47.2,23.93-68.94,38.64,31.12-9.09,111.42,7.05,150.51,14.24,14.36,2.64,34.82,11.35,50.55,5.08,13.11-27.94,76.94-21.74,105.7-10.17,57.56,23.17,108.16,63.3,133.27,114.91q5.745,19.815,11.49,39.65c2.15-2.59-.15-1.48,3.45-1.01q14.925,23.385,29.87,46.77c16.23,31.95,25.51,70.36,34.47,107.79,17,71.06,2.52,163.14-13.79,223.7-13.17,48.91-20.57,96.93-36.76,142.36-29.25,82.04-68.97,157.78-105.7,232.86-34.13,69.74-100.81,213.29-227.49,187.1-55.6-11.5-150.5-65.66-118.33-134.23q46.53-62.01,93.06-124.05c51.96-76.71,90.25-159.95,126.38-251.16,20.88-52.72,46.56-120.74,34.46-188.12h-1.14l-3.45,2.04q-195.3,229.77-390.63,459.61c-44.38,55.71-96.14,146.42-179.22,164.73-43.54,9.59-99.67,1.01-147.06,1.01-121.35.01-325.04,18.64-381.44-41.69-49.96-53.44-4.31-151.61,16.09-209.47q87.3-268.41,174.63-536.89h-1.15c-10.14,13.12-45.5,7.3-55.15,21.35q-80.415,250.635-160.84,501.31c-30.36,89.62-46.52,206.17-128.68,250.14-56.97,30.49-193.05,15.19-279.18,15.25-99.15.07-203.44,7.68-261.95-32.53-30.13-20.72-52.7-60.11-63.19-97.62-9.79-35.04-3.45-82.14-3.45-122.02V2248.42q-1.14-68.64-2.29-137.28-10.92,36.09-21.83,72.2-14.37,64.05-28.72,128.12c-18.75,82.56-10.77,171.03-26.43,256.24-14.46,78.66,33.19,187.54-9.19,249.13-23.03,33.47-90.8,62.16-155.1,44.74-79.16-21.44-109.15-69.43-109.15-162.69q0.585-31.515,1.15-63.05,2.88-56.43,5.75-112.87,11.49-81.33,22.97-162.69c30.76-140.42,63.22-282.83,117.19-402.67,22.51-49.98,40.85-100.56,74.68-140.33,15.46-18.17,37.99-37.55,63.19-46.77,28.45-10.41,64.34-6.75,99.95-12.2,69.15-10.58,167.08-12.44,238.97-2.04l74.68,2.04c92.96,13.03,191.16,6.42,280.33-7.12q71.235-6.105,142.47-12.2,43.08-13.215,86.16-26.44,36.765-6.105,73.53-12.2c52.36-10.14,113.32-11.84,172.34-21.36q37.905-2.535,75.83-5.08,17.22,10.68,34.46,21.35c23.81,13.29,54.81,27.44,86.17,32.54-31.27-16.07-66.73-23.14-96.51-39.66-93.96-52.09-224.99-187.67-193.01-341.65,5.57-26.82,10.39-53.82,20.68-77.29,17.38-39.63,38.49-75.6,65.49-106.76,38.97-45,96.53-84.74,159.69-107.79q40.215-10.68,80.43-21.35Q2800.835,1030.74,2823.82,1028.2Zm1128.22,10.17c0.38,0.68.76,1.36,1.15,2.03C3952.8,1039.73,3952.42,1039.05,3952.04,1038.37ZM924.693,1040.4l1.149,2.04Zm3028.5,0c0.76,1.02,1.53,2.04,2.3,3.06C3954.72,1042.44,3953.95,1041.42,3953.19,1040.4Zm-3180.151,5.09c-0.383,1.02-.766,2.03-1.149,3.05C773.465,1046.36,773.983,1047.99,773.039,1045.49Zm71.231,10.17c-0.383,1.01-.766,2.03-1.149,3.05C844.7,1056.53,845.215,1058.16,844.27,1055.66Zm-33.318,1.01-1.149,3.06,2.3-2.04Zm21.829,2.04c-0.765,1.69-1.532,3.39-2.3,5.08C832.4,1061.76,833.549,1060.57,832.781,1058.71Zm-70.082,3.05c0.383,0.68.766,1.35,1.149,2.03C763.465,1063.11,763.082,1062.44,762.7,1061.76Zm80.422,0q-1.147,2.025-2.3,4.07l2.3-1.02v-3.05Zm59.743,1.02c1.189,3.24.316,2.78-2.3,5.08C901.332,1066.17,902.1,1064.47,902.864,1062.78Zm-4.6,7.11c-0.371,2.09.387,1.73-2.3,4.07Q897.12,1071.935,898.269,1069.89Zm-68.934,9.16q-1.149,2.535-2.3,5.08l2.3-1.02v-4.06Zm58.593,0c3.675,1.35-.947,4.27-3.446,6.1Q886.206,1082.09,887.928,1079.05Zm-4.6,6.1c0.383,0.67.766,1.35,1.149,2.03C884.1,1086.5,883.716,1085.82,883.333,1085.15Zm-2.3,3.05c0.383,0.67.766,1.35,1.149,2.03C881.8,1089.55,881.418,1088.87,881.035,1088.2Zm3105.475,2.03c0.38,1.02.76,2.03,1.14,3.05h-1.14v-3.05ZM819,1093.28l-5.745,11.19,3.447-2.04Zm3182.445,8.14c3.6,1.64,2.71.92,4.6,4.06C4004.5,1104.13,4002.97,1102.77,4001.44,1101.42ZM856.908,1122.77h2.3q-2.3,5.6-4.6,11.18c-0.765-.33-1.532-0.67-2.3-1.01v-1.02Q854.61,1127.345,856.908,1122.77Zm-99.954,13.22q-1.149,2.025-2.3,4.07l2.3-1.02v-3.05Zm3273.206,5.08c0.39,0.68.77,1.36,1.15,2.04C4030.93,1142.43,4030.55,1141.75,4030.16,1141.07Zm-3188.187,4.07v6.1l-2.3,1.02C840.441,1149.89,841.207,1147.51,841.973,1145.14Zm-63.19,3.05c-0.383,1.36-.766,2.71-1.149,4.07q1.724-1.53,3.447-3.05Zm-94.209,6.1q0.575,1.02,1.148,2.04Q685.149,1155.31,684.574,1154.29Zm-1.149,3.05c0.766,1.36,1.532,2.71,2.3,4.07l-6.893,10.17q3.447-1.53,6.893-3.05c-6.316,18.49-22.86,49.57-37.913,62.02-0.383-1.01-.766-2.03-1.149-3.05,4.8-8.73,5.63-20.2,10.34-30.5C663.361,1183.08,676.143,1172.34,683.425,1157.34Zm-12.638,1.02c0.383,0.68.766,1.35,1.149,2.03C671.553,1159.71,671.17,1159.04,670.787,1158.36Zm96.507,7.12q-3.446,7.62-6.893,15.25c4.748-3.2,8.593-7.33,10.34-13.22C769.592,1166.83,768.443,1166.15,767.294,1165.48Zm-81.572,1.01,1.149,2.04Zm-14.935,3.05c0.781,3.65-.063,4.59-3.447,7.12Q669.064,1173.105,670.787,1169.54Zm3384.653,9.16c0.38,0.67.77,1.35,1.15,2.03C4056.21,1180.05,4055.82,1179.37,4055.44,1178.7Zm1.15,3.05c0.38,0.67.76,1.35,1.15,2.03C4057.35,1183.1,4056.97,1182.42,4056.59,1181.75Zm-3300.785,1.01q-1.723,3.06-3.446,6.1,2.3-3.045,4.595-6.1h-1.149Zm49.4,12.21c3.356,3.86,2.845,3.67-2.3,7.11Zm-12.638,4.06c-0.766,1.7-1.532,3.39-2.3,5.09l2.3-1.02v-4.07Zm-108,2.04q-8.041,13.725-16.085,27.45c6.733-.54,2.783-2.25,6.893,3.05Q679.978,1216.315,684.574,1201.07Zm134.421,0-4.6,8.13C817.7,1207.01,820.378,1204.46,819,1201.07Zm-78.125,3.05c-0.383,1.35-.766,2.71-1.149,4.06C741.473,1205.86,741.819,1206.95,740.87,1204.12Zm-57.445,7.11-3.447,11.19,2.3-1.02Zm105.7,8.14c0.383,0.68.766,1.36,1.149,2.03C789.889,1220.73,789.506,1220.05,789.123,1219.37Zm-99.954,3.05c-0.766,2.03-1.532,4.07-2.3,6.1l2.3-1.02v-5.08Zm-43.658,1.02h0Zm33.318,0v0Zm-35.616,3.05h2.3c-0.383,1.35-.766,2.71-1.149,4.06-0.766-.67-1.532-1.35-2.3-2.03C642.447,1227.84,642.83,1227.17,643.213,1226.49Zm-3.446,4.06,3.446,1.02q-1.724,1.53-3.446,3.05c-0.766,1.02-1.532,2.04-2.3,3.05Q638.618,1234.115,639.767,1230.55Zm3445.543,0q5.175,6.615,10.34,13.22c-0.38.34-.77,0.68-1.15,1.02-1.15-.68-2.3-1.36-3.44-2.03Q4088.18,1236.655,4085.31,1230.55Zm-3362.823,2.04c-5.953,16.85-17.6,28.9-22.978,47.79h1.149C706.917,1277.02,725.555,1238.32,722.487,1232.59Zm-80.423,1.02h2.3c-5.72,27.38-33.228,49.34-44.807,74.22-0.766-.33-1.532-0.67-2.3-1.01v-1.02C606.574,1277.56,633.338,1257.09,642.064,1233.61Zm51.7,0q-3.447,7.62-6.894,15.25l3.447-2.04C692.1,1242.19,695.3,1238.06,693.765,1233.61Zm32.169,0q-2.3,7.62-4.6,15.25l2.3-1.02v-2.03C725.789,1242.57,727.335,1236.94,725.934,1233.61Zm54,1.01c1.625,5.51-4.441,14.92-9.191,18.31Q775.335,1243.765,779.932,1234.62Zm-144.761,6.1,1.149,2.04Zm3442.1,2.04c10.14,6.84,15.54,17.13,20.68,28.47-1.53-.68-3.07-1.36-4.6-2.04C4092.01,1256.39,4082.15,1252.48,4077.27,1242.76Zm21.83,5.08c6.17,4.07,9.46,9.5,10.34,18.3-1.92-1.35-3.83-2.71-5.75-4.06Q4101.4,1254.955,4099.1,1247.84Zm-3.45,1.02c0.38,0.68.77,1.35,1.15,2.03C4096.42,1250.21,4096.03,1249.54,4095.65,1248.86Zm-3450.139,4.07c-0.766,1.69-1.532,3.39-2.3,5.08l2.3-1.02v-4.06Zm63.189,8.13c1.3,3.53.4,5.56-2.3,8.13Q707.551,1265.125,708.7,1261.06Zm-49.4,3.05v0Zm101.1,4.07c0.784,3.73,1.422,2.74-2.3,5.08C758.869,1271.57,759.635,1269.87,760.4,1268.18Zm-137.868,5.08,2.3,1.02c-0.288,10.4-3.8,20.29-11.489,24.4h-1.149Q617.362,1285.975,622.533,1273.26Zm3477.717,2.04c10.86,7.65,20.1,22.18,22.97,36.6C4113.21,1304.34,4103.09,1288.62,4100.25,1275.3Zm18.38,3.05c0.38,0.67.76,1.35,1.15,2.03C4119.39,1279.7,4119.01,1279.02,4118.63,1278.35ZM696.063,1281.4q-12.063,24.9-24.127,49.82c0.766-.34,1.532-0.68,2.3-1.01,7.432-15.54,17.75-32.42,26.424-48.81h-4.6Zm56.3,1.01c0.667,3.19.433,3.56-2.3,6.1Q751.21,1285.465,752.359,1282.41Zm-106.848,4.07c-0.766,1.7-1.532,3.39-2.3,5.09l2.3-1.02v-4.07ZM600.7,1287.5c1.923,4.64-1.187,10.22-4.6,13.22v-3.05Zm3519.076,0q4.02,5.6,8.04,11.18c-1.15-.67-2.3-1.35-3.45-2.03Zm-3437.5,5.08,1.149,2.04Zm-1.149,7.12v0Zm-28.723,6.1q-2.871,6.1-5.744,12.2c1.149-.67,2.3-1.35,3.447-2.03Q651.256,1310.885,652.4,1305.8Zm76.977,0q-1.723,4.065-3.447,8.14C729.039,1311.61,730.856,1309.37,729.381,1305.8Zm-133.273,2.03,2.3,2.04a51.316,51.316,0,0,0-8.042,20.34h-1.149Q592.662,1319.02,596.108,1307.83Zm3532.862,0c0.38,0.68.76,1.36,1.15,2.04C4129.73,1309.19,4129.35,1308.51,4128.97,1307.83Zm-3504.139,1.02q-2.3,6.615-4.6,13.22h1.149v-2.03C624.437,1317.35,626.794,1313.03,624.831,1308.85Zm3498.389,4.07c0.39,0.68.77,1.36,1.15,2.03C4123.99,1314.28,4123.61,1313.6,4123.22,1312.92Zm-3384.648,3.05c0.383,1.02.766,2.03,1.149,3.05h-1.149v-3.05Zm3385.8,0c0.39,0.68.77,1.36,1.15,2.03C4125.14,1317.33,4124.76,1316.65,4124.37,1315.97Zm-3391.543,1.02c0.989,3.74-1.211,7.43-4.6,10.17Q730.529,1322.075,732.827,1316.99Zm3403.033,0c0.38,0.67.77,1.35,1.15,2.03C4136.63,1318.34,4136.24,1317.66,4135.86,1316.99Zm-3398.437,2.03c0.383,0.68.766,1.36,1.149,2.03C738.189,1320.38,737.806,1319.7,737.423,1319.02Zm-130.974,1.02c1.723,4.49-1.076,9.34-4.6,12.2Q604.151,1326.135,606.449,1320.04Zm79.273,2.03c-0.382,1.36-.765,2.71-1.148,4.07h1.148v-4.07Zm49.4,4.07c0.383,0.68.766,1.35,1.149,2.03C735.891,1327.49,735.508,1326.82,735.125,1326.14Zm-103.4,1.02q-1.722,9.15-3.446,18.3l2.3-1.02C631.883,1338.57,635.215,1330.74,631.724,1327.16Zm51.7,0v0Zm-56.3,1.01-2.3,9.15h1.149Zm55.147,2.04v0Zm-94.21,1.01,1.149,2.04Zm20.68,5.09c-0.383,1.01-.766,2.03-1.149,3.05C609.173,1337.18,609.691,1338.81,608.746,1336.31Zm3.447,3.05-2.3,9.15c1.532-2.37,3.064-4.75,4.6-7.12C613.725,1340.71,612.959,1340.03,612.193,1339.36Zm25.276,3.05c3.043,1.43,1,.53,0,3.05v-3.05Zm20.68,3.05c-0.766,1.69-1.532,3.39-2.3,5.08,1.149-.34,2.3-0.68,3.447-1.01C658.915,1348.17,658.532,1346.81,658.149,1345.46Zm56.3,1.02c0.383,1.35.766,2.71,1.149,4.06-0.766-.68-1.532-1.35-2.3-2.03C713.679,1347.83,714.062,1347.15,714.445,1346.48Zm-50.552,2.03c-0.383,2.03-.766,4.07-1.148,6.1l2.3-1.02C664.659,1351.9,664.276,1350.2,663.893,1348.51Zm-43.658,1.02v0Zm-1.149,3.05v0Zm-1.148,3.05v0Zm58.593,2.03v0Zm-59.742,1.02v0Zm58.593,2.03v0Zm-26.424,2.03c-0.383,2.04-.766,4.07-1.149,6.11l2.3-1.02C649.724,1366.13,649.341,1364.44,648.958,1362.74Zm-58.594,3.06c0.383,0.67.766,1.35,1.149,2.03C591.13,1367.15,590.747,1366.47,590.364,1365.8Zm2.3,8.13c0.383,0.68.766,1.36,1.149,2.03C593.428,1375.29,593.045,1374.61,592.662,1373.93Zm29.871,2.03h2.3q-1.149,4.575-2.3,9.16h-1.149Q621.959,1380.53,622.533,1375.96Zm-37.914,3.05q-4.02,13.23-8.042,26.44c0.766-.34,1.532-0.68,2.3-1.01q4.594-11.7,9.191-23.39Zm20.681,0q-1.149,4.08-2.3,8.14l2.3-1.02v-7.12Zm-14.936,11.19c-0.766,2.03-1.532,4.07-2.3,6.1C590.3,1394.09,591.369,1392.7,590.364,1390.2Zm6.893,0c-3.63,11.13-20.806,21.99-13.786,37.62v-2.03C589.622,1420.47,600.815,1399.26,597.257,1390.2Zm96.508,2.03c0.383,1.02.766,2.04,1.149,3.05h-1.149v-3.05Zm-9.191,6.1q0.575,1.02,1.148,2.04Q685.149,1399.35,684.574,1398.33Zm-3.447,7.12,1.149,2.04Zm-86.167,2.04-2.3,7.11c0.383,1.02.766,2.04,1.149,3.05,0.766-.33,1.532-0.67,2.3-1.01v-2.04C597.6,1411.34,597.538,1409.73,594.96,1407.49Zm-13.787,1.01c-2.173,5.25-4.106,5.72-4.6,13.22h1.149v-2.03C580.675,1417.03,582.891,1412.31,581.173,1408.5Zm98.8,0,1.149,2.04Zm3399.592,0c1.88,11.24,8.75,24.68,17.23,30.51Q4088.19,1423.755,4079.57,1408.5Zm-3400.741,3.05,1.149,2.04Zm4.6,3.05v6.1h-1.149Q682.851,1417.655,683.425,1414.6Zm-6.894,1.02-1.149,11.19h-1.148Q675.382,1421.215,676.531,1415.62Zm3496.1,0q2.295,4.065,4.59,8.14Q4174.925,1419.68,4172.63,1415.62Zm-3481.163,2.03,1.149,2.04Zm-10.34,3.05,1.149,2.04Zm9.191,0,1.149,2.04Zm-1.149,3.06c0.383,0.67.766,1.35,1.149,2.03C689.935,1425.11,689.552,1424.43,689.169,1423.76Zm-16.084,3.05c0.383,0.67.766,1.35,1.149,2.03C673.851,1428.16,673.468,1427.48,673.085,1426.81Zm-99.954,5.08v0Zm3606.389,2.03c0.38,0.68.77,1.36,1.15,2.04C4180.29,1435.28,4179.9,1434.6,4179.52,1433.92Zm-3591.454,2.04v0Zm27.574,6.1c1.875,3.11.44,5.09-1.149,10.17h-1.149v-3.05Q614.491,1445.61,615.64,1442.06Zm8.042,6.1c0.383,1.02.766,2.03,1.149,3.05h-1.149v-3.05Zm-1.149,3.05c0.383,0.68.766,1.36,1.149,2.03C623.3,1452.57,622.916,1451.89,622.533,1451.21Zm-10.34,1.02c0.383,1.01.766,2.03,1.149,3.05h-1.149v-3.05Zm9.191,1.01,1.149,2.04Zm-1.149,2.04c0.383,0.68.766,1.35,1.149,2.03C621,1456.63,620.618,1455.96,620.235,1455.28Zm-1.149,2.03c0.383,0.68.766,1.36,1.149,2.03C619.852,1458.67,619.469,1457.99,619.086,1457.31Zm-1.148,2.03q0.573,1.02,1.148,2.04Q618.512,1460.36,617.938,1459.34ZM549,1461.38c0.383,0.68.766,1.35,1.149,2.03C549.77,1462.73,549.387,1462.06,549,1461.38Zm67.785,1.02c0.383,0.67.766,1.35,1.149,2.03C617.555,1463.75,617.172,1463.07,616.789,1462.4Zm3486.9,0q4.02,8.64,8.05,17.28h1.14v-3.05Q4108.29,1469.52,4103.69,1462.4Zm-3488.05,2.03c0.383,0.68.766,1.35,1.149,2.03C616.406,1465.78,616.023,1465.11,615.64,1464.43Zm-50.552,1.02q-0.574,5.58-1.149,11.18H562.79v-5.08Q563.939,1468.49,565.088,1465.45Zm49.4,1.01,1.149,2.04ZM555.9,1468.5q-1.149,5.58-2.3,11.18h2.3V1468.5Zm57.445,0c4.738,14.11-18.665,56.76-21.829,76.26h-1.149c-0.252-13.91,2.419-23.61,4.6-34.57h-1.149l-2.3,8.13h-1.149c-0.07-13.08,4.307-20.5,6.893-30.5h1.149l-2.3,18.3h1.149Q605.3,1487.31,613.342,1468.5Zm-65.487,2.03c-0.383,2.37-.766,4.75-1.149,7.12l2.3-1.02C548.621,1474.6,548.238,1472.56,547.855,1470.53Zm56.3,4.07c0.383,0.68.766,1.35,1.149,2.03C604.917,1475.95,604.534,1475.28,604.151,1474.6Zm-36.765,5.08v0Zm32.169,2.04v0Zm6.894,9.15v0Zm-52.85,6.1c0.383,0.68.766,1.35,1.149,2.03C554.365,1498.32,553.982,1497.65,553.6,1496.97Zm-2.3,3.05-1.148,5.08H551.3c0.383-1.69.766-3.39,1.149-5.08H551.3Zm3639.709,4.07v0Zm-3596.05,3.05v0Zm-57.445,3.05q-1.723,5.6-3.447,11.18h1.149v-2.03C537.849,1516.73,539.316,1514.04,537.515,1510.19Zm25.275,14.23v6.1c-0.765-.34-1.532-0.67-2.3-1.01v-1.02C561.258,1527.13,562.025,1525.78,562.79,1524.42Zm20.681,2.04c0.765,0.67,1.532,1.35,2.3,2.03q-4.594,15.255-9.191,30.51Q580.024,1542.725,583.471,1526.46Zm48.253,0v0Zm3500.7,0q2.3,3.045,4.59,6.1Q4134.715,1529.5,4132.42,1526.46Zm-3589.161,2.03c0.383,0.68.766,1.36,1.149,2.03C544.025,1529.85,543.642,1529.17,543.259,1528.49Zm9.191,3.05v0Zm68.934,1.02c-0.383,2.03-.766,4.07-1.149,6.1h1.149c0.383-2.03.766-4.07,1.149-6.1h-1.149Zm-73.529,6.1q-1.149,3.555-2.3,7.12h1.149Q547.281,1542.21,547.855,1538.66Zm3.446,14.23,1.149,2.04Zm-31.02,2.04c-0.383,2.03-.766,4.07-1.149,6.1h1.149c0.383-1.7.766-3.39,1.149-5.09C521.047,1555.61,520.664,1555.27,520.281,1554.93Zm29.872,0c0.382,0.68.766,1.35,1.148,2.03C550.919,1556.28,550.535,1555.61,550.153,1554.93Zm95.358,3.05c0.383,0.68.766,1.35,1.149,2.03C646.277,1559.33,645.894,1558.66,645.511,1557.98ZM584.619,1559c0.383,1.01.766,2.03,1.149,3.05h-1.149V1559Zm-10.34,2.03v6.1h-1.148C573.513,1565.1,573.9,1563.06,574.279,1561.03Zm20.681,1.02c0.382,0.67.766,1.35,1.148,2.03C595.726,1563.4,595.342,1562.72,594.96,1562.05Zm-2.3,4.06v0Zm49.4,0c4.02,7.97-1.529,18.92-4.595,24.41l-2.3-1.02v-1.02Q638.618,1577.3,642.064,1566.11Zm3531.716,8.14q1.71,5.085,3.44,10.17c0.77-.34,1.53-0.68,2.3-1.02-0.38-1.02-.77-2.03-1.15-3.05C4176.84,1578.32,4175.31,1576.28,4173.78,1574.25Zm35.61,2.03v0Zm-33.32,14.24c0.39,1.69.77,3.39,1.15,5.08h1.15v-3.05C4177.61,1591.87,4176.84,1591.2,4176.07,1590.52Zm-3658.087,9.15c0.383,0.68.766,1.36,1.149,2.03C518.749,1601.03,518.366,1600.35,517.983,1599.67Zm108,1.02c0.383,0.67.766,1.35,1.149,2.03C626.746,1602.04,626.363,1601.36,625.98,1600.69Zm3534.01,2.03c0.38,0.68.76,1.36,1.15,2.03C4160.75,1604.08,4160.37,1603.4,4159.99,1602.72Zm-3644.3,1.02v0Zm108,1.01c5.334,4.81-.263,14.36-2.3,19.32h-1.149Zm3538.608,3.05c0.38,0.68.76,1.36,1.15,2.04C4163.05,1609.16,4162.67,1608.48,4162.29,1607.8ZM617.938,1627.12l-1.149,10.17Zm3539.752,3.05v0Zm-3545.5,16.27v0Zm-8.042,38.64h2.3c-0.766,2.04-1.532,4.07-2.3,6.11H603C603.385,1689.15,603.768,1687.12,604.151,1685.08Zm-4.6,17.29c1.7,2.64,1.213,4.44,0,9.15h-1.149v-5.08C598.789,1705.08,599.172,1703.73,599.555,1702.37Zm3582.265,9.15c0.38,1.02.76,2.04,1.15,3.05h-1.15v-3.05Zm-1177.62,4.07q-6.9,3.045-13.79,6.1C2997.46,1720.49,3004.57,1717.62,3004.2,1715.59Zm-2440.261,5.08c3.065,2.51-9.075,65.93-6.893,64.06-2.232,3.09-.377,1.07-3.447,2.04-0.383.68-.766,1.35-1.149,2.03C552.136,1761.07,561.7,1740.14,563.939,1720.67Zm-3.446,1.02c0.383,1.02.766,2.03,1.149,3.05h-1.149v-3.05Zm2426.467,0c0.77,0.34,1.54.68,2.3,1.02C2988.5,1722.37,2987.73,1722.03,2986.96,1721.69Zm-2427.616,4.07v0Zm2182.906,2.03c0.77,0.34,1.53.68,2.3,1.02C2743.78,1728.47,2743.02,1728.13,2742.25,1727.79Zm3.45,1.02c2.29,0.68,4.59,1.35,6.89,2.03C2750.29,1730.16,2747.99,1729.49,2745.7,1728.81Zm8.04,2.03c1.15,0.34,2.3.68,3.44,1.02C2756.04,1731.52,2754.89,1731.18,2753.74,1730.84Zm4.59,1.02c0.77,0.34,1.54.68,2.3,1.02C2759.87,1732.54,2759.1,1732.2,2758.33,1731.86Zm4.6,1.02c0.77,0.33,1.53.67,2.3,1.01C2764.46,1733.55,2763.7,1733.21,2762.93,1732.88Zm-2196.693,3.05v6.1h-1.149Q565.663,1738.97,566.237,1735.93Zm2348.343,1.01q-22.965,3.57-45.95,7.12c16.58-.28,39.16-1.53,51.7-7.12h-5.75Zm1338.47,18.31c0.38,1.01.77,2.03,1.15,3.05h-1.15v-3.05Zm-1624.54,9.15h0Zm-28.72,1.01h0Zm102.25,0c1.15,0.34,2.3.68,3.44,1.02C2704.34,1766.09,2703.19,1765.75,2702.04,1765.41Zm4.59,0h0Zm-121.78,1.02h0Zm-11.49,1.02h0Zm-8.04,1.02h0Zm-8.04,1.01h0Zm-6.9,1.02h0Zm-4.59,1.02c1.15,0.33,2.3.67,3.44,1.01C2548.09,1772.19,2546.94,1771.85,2545.79,1771.52Zm-5.75,1.01,3.45,1.02Zm-4.59,1.02c1.15,0.34,2.3.68,3.44,1.02C2537.75,1774.23,2536.6,1773.89,2535.45,1773.55Zm-4.6,1.02c1.15,0.34,2.3.67,3.45,1.01C2533.15,1775.24,2532,1774.91,2530.85,1774.57Zm-3.44,1.01c0.76,0.34,1.53.68,2.29,1.02C2528.94,1776.26,2528.17,1775.92,2527.41,1775.58Zm-3.45,1.02c0.76,0.34,1.53.68,2.3,1.02C2525.49,1777.28,2524.72,1776.94,2523.96,1776.6Zm1723.35,79.31v0Zm-1818.71,6.11c-9.33,27.32-24.76,53.02-31.02,84.39h1.15Q2413.655,1904.215,2428.6,1862.02ZM465.134,1965.73c15.769,11.39,9.09,36.77,12.638,56.95,6.439,36.62,12.209,80.67,13.787,122.02,3.174-1.37.337-.65,3.446-1.02q6.894,27.96,13.787,55.93c11.256,38.84,1.931,84.33,26.425,112.87q-4.6-21.87-9.191-43.73l2.3,1.02q2.3,5.085,4.6,10.17-4.02-16.275-8.042-32.54c-1.535-4.98,2.348-21.89,3.447-18.3l-5.745-29.49c-1.835-8.2-8.485-31.18-2.3-40.68v2.04q10.34,47.28,20.68,94.56l17.234,65.08q8.616,17.79,17.233,35.59c-1.148-.68-2.3-1.35-3.446-2.03q9.764,21.855,19.531,43.72h1.149c2.685-19.11-12.61-38.34-19.531-53.89-11.821-26.56-13.817-57.04-21.83-87.45-2.316-8.79-8.478-25.96-5.744-34.57,0.383,1.69.766,3.39,1.149,5.08h1.149c-2.108-17.84-17.273-45.54-9.191-64.06v2.03c0.383,1.36.766,2.72,1.148,4.07,3.23-1.8,1.955-1.48,4.6-2.03q7.467,18.3,14.936,36.6,7.467,35.085,14.935,70.17,20.679,52.365,41.361,104.73,10.338,35.085,20.68,70.16,20.1,32.04,40.211,64.07c9.554,20.28,9.88,46.08,21.829,64.06q14.361,17.79,28.723,35.59c18.13,33.52,28.317,66.93,50.551,96.6,8.081,10.78,20.656,18.89,29.872,28.47l16.084,29.49q27.571,36.09,55.147,72.19,37.337,37.11,74.679,74.23c15.543,17.29,28.053,36.2,43.658,53.89q19.524,15.255,39.066,30.51-6.33-3.555-12.64-7.12c4.54,11.29,23.74,22.08,32.17,31.52,30.6,34.31,69.4,75.17,113.74,96.6-0.38-1.35-.77-2.71-1.15-4.06l5.74,4.06c1.71,11.95,22.43,18.96,33.32,26.44,27.44,18.85,52.16,39.6,81.57,57.96,42.19,26.34,78.63,58.68,122.94,83.38,67.31,37.54,142.28,64.78,217.14,96.6,115.67,49.18,255.69,82.27,395.22,109.82l196.46,20.34q59.73,1.02,119.49,2.03c119.59,0.01,223.67-5.48,319.39-24.4,56.86-11.24,110.22-17.4,163.14-31.52,184.49-49.22,347.64-110.87,494.03-193.2,78.15-43.95,154.33-101.63,226.33-152.53,37.56-26.55,72.16-60.28,102.25-93.55q22.41-18.3,44.81-36.61l136.72-150.49q20.67-33.045,41.36-66.09c4.9-7.07,16.23-14.15,19.53-18.31,10.84-13.67,9.52-29.65,24.13-39.65-1.22,4.47-2.6,3.91,0,7.11l19.53-36.6q18.375-36.6,36.76-73.21c4.4,1.99,11.73-10.79,14.94-16.27q13.785-33.045,27.57-66.1,20.1-38.13,40.21-76.26c9.96-21.78,17.47-51.5,24.13-71.18l2.3,2.03q-6.315,16.275-12.64,32.54c0.77,2.37,1.53,4.75,2.3,7.12-7.6,21.24-25.05,55.54-35.62,74.23q1.725-3.06,3.45-6.1h1.15c-9.09,63.47-57.51,103-75.83,157.61l3.45-2.04c-7.84,25.12-26.49,44.56-40.21,65.08-30.46,45.54-56.34,93.56-90.77,131.18-13.38,14.62-18.19,38.08-33.31,48.8l4.59-9.15c-14.21,10.15-13.58,22.24-24.13,34.58q-17.22,15.75-34.46,31.52-11.49,16.26-22.98,32.54-17.235,12.7-34.47,25.42c-12.21,16.38-17.64,29.47-32.17,39.65,0.77-1.35,1.53-2.71,2.3-4.06l-48.25,42.7q-60.315,49.83-120.64,99.66-26.415,15.75-52.85,31.52-12.63,5.6-25.27,11.18-4.02,6.615-8.04,13.22c-80.23,58.29-193.78,114-295.27,152.53-38.78,14.72-117.6,50.3-152.8,51.86q-22.98,10.17-45.96,20.33-57.435,13.725-114.89,27.46v1.02q33.885-7.635,67.78-15.26c79.42-22.1,150.47-43.66,221.74-71.18,163.23-63.01,296.81-146.68,428.54-236.92q38.49-32.025,76.98-64.06c68.21-47.99,128.04-105.75,180.37-167.78l72.38-80.33c11.38-18.53,20.3-34.36,33.32-50.84,30.56-38.69,64.21-79.45,76.98-123.04,1.68,0.98,1.77,3.24,2.3,1.01,21.32-19.55,75.05-112.92,81.57-144.39,3.23,1.81,1.95,1.49,4.59,2.04,2.9-11.8,6.82-15.62,9.19-29.49h-1.14c-1.15,2.03-2.3,4.07-3.45,6.1,0.97-6.16-1.71-3.31,1.15-7.12q1.725-4.065,3.44-8.13c0.77,1.35,1.54,2.71,2.3,4.06q10.35-26.43,20.68-52.87h1.15q-1.14,4.575-2.3,9.15h1.15c1.53-1.02,3.07-2.03,4.6-3.05,0.49-2.75,21.81-74.21,21.83-74.23,0.38,1.69.76,3.39,1.15,5.08,0.28-2.29,12.74-25.2,16.08-30.5,0.38,1.01.77,2.03,1.15,3.05-1.45-8.98.16-18.02,2.3-26.44h1.15v8.14q9.18-36.615,18.38-73.22c0.38,1.7.76,3.39,1.15,5.09q-0.585-7.635-1.15-15.26,2.295,1.53,4.59,3.05,5.745-28.455,11.49-56.94c0.51,12.99,8.24,14.26,4.6,29.49-13.27,55.56-27.18,129.31-47.11,176.93q-8.61,27.45-17.23,54.91c-3.13,5.02-9.55,8.46-12.64,15.25-17.58,38.7-23.95,77.46-43.66,112.87,0.77,0.68,1.54,1.36,2.3,2.04v-2.04c14.31-11.27,15.3-33.58,22.98-50.84,16.63-37.36,39.72-69.43,50.55-112.87,1.68,0.98,1.77,3.24,2.3,1.02q2.3-4.065,4.6-8.14c0.76,0.34,1.53.68,2.29,1.02v1.02c-15.41,22.03-18.65,53.03-29.87,78.29-11.9,26.8-33.5,47.37-34.47,83.38h2.3c-0.03-35.61,25.38-49.96,32.17-79.31h1.15c-0.42,9.49-3.84,13.94-4.59,21.35-1.15-.67-2.3-1.35-3.45-2.03-1.06,21.75-17.38,66.22-29.87,78.3q-0.585-3.06-1.15-6.1c-0.29,6.38-1.42,12.05-6.9,14.23q0.585-5.6,1.15-11.18v2.03c-6.26,7.02-26.66,41.17-22.97,46.78q2.3-2.04,4.59-4.07c-1.47,8.67-6.12,16.02-12.64,20.34q2.88-8.145,5.75-16.27c-11.37,6.82-21.71,31.78-22.98,46.77h1.15c2.14-3.14-.69-2.3,3.45-2.03-0.39,1.69-.77,3.39-1.15,5.08-1.15-.68-2.3-1.35-3.45-2.03,0.7,10.33-4.05,17.64-11.49,23.39,0.77-2.04,1.53-4.07,2.3-6.11-0.77.34-1.53,0.68-2.3,1.02-10.69,38.76-43,64.46-64.34,94.57-30.97,43.7-48.47,94.86-93.06,126.09,0.77,0.67,1.53,1.35,2.3,2.03,1.53-1.02,3.06-2.03,4.6-3.05-6.67,12.28-24.96,18.38-32.17,27.45-9.6,12.08-13.44,24.84-25.28,34.58-2.26-.34-0.55-1.33-2.3,0-14.52,22.93-40.42,33.84-59.74,55.92-23.58,26.96-46.12,54.81-74.68,77.28-8.89,7-24.07,10.18-35.61,19.32-19.89,15.74-34.09,45.2-62.04,52.88l5.74-7.12c-7.25,2.56-12.96,8.02-17.23,13.22l3.44-1.02c-18.67,27.98-82.08,46.36-90.76,68.13q5.175-3.555,10.34-7.12l-3.45,1.02c0.77-1.02,1.54-2.03,2.3-3.05,41.74-8.94,66.78-43.35,94.21-62.03q20.685-14.235,41.36-28.47c6.07-5.53,10.62-15.36,20.68-22.37,23.88-16.63,45.12-25.36,63.19-46.77q17.235-17.3,34.47-34.58c9.49-6.39,17.01-2.49,21.83-12.2l-5.75,4.07c3.91-10.91,13.94-12.64,20.68-20.34l-4.59,2.04c1.15-1.7,2.29-3.39,3.44-5.09,21.7-7.32,51.61-40.19,56.3-55.93h1.15c-0.38,1.7-.77,3.39-1.15,5.09,1.15-.68,2.3-1.36,3.45-2.03,2.29-10.66,4.01-20.11,13.78-26.44-0.38,1.01-.76,2.03-1.15,3.05,22.92-12.58,71.74-77.91,89.62-103.72,20.94-30.24,53.55-70.08,76.97-104.74q12.645-24.9,25.28-49.82c23.9-35.85,52.74-73.07,72.38-112.87,18.85-38.21,30.49-74.12,48.25-111.85q7.47-17.295,14.94-34.58c0.38,0.68.77,1.36,1.15,2.04-3.85-15.78,12.37-44.68,16.08-65.08,0.77,1.02,1.54,2.03,2.3,3.05q4.59-18.81,9.19-37.62h1.15q-1.14,6.6-2.3,13.22h1.15v-2.04q6.315-18.3,12.64-36.6c0.77,0.33,1.53.67,2.3,1.01,0.33,22.82-8.45,38.2-13.79,56.95,1.53-1.36,3.07-2.72,4.6-4.07-4.41,16.97-12.07,23.41-13.79,39.66,4.8-3.46,1.14-.42,5.74-2.04,2.01-12.16,4.75-18.61,5.75-27.45h1.15c0.76,1.69,1.53,3.39,2.3,5.08v-2.03q3.435-8.64,6.89-17.29h-1.15c-0.77,1.36-1.53,2.71-2.3,4.07,7.02-31.62,31.03-54.86,35.62-90.5-3.04,1.02-1.43.74-2.3-2.03l3.45-2.04q4.59-2.025,9.19-4.07c-0.08,19.76-6.8,35.36-11.49,51.86h-1.15c0.38-2.71.77-5.42,1.15-8.13-0.77.34-1.53,0.68-2.3,1.02q-1.14,7.62-2.3,15.25c-2.26-.34-0.55-1.32-2.29,0q-3.45,21.855-6.9,43.72-15.51,38.64-31.02,77.28c0.77-.34,1.53-0.67,2.3-1.01,0.38-1.36.77-2.72,1.15-4.07h1.15v5.08c-0.77,1.7-1.53,3.39-2.3,5.09-3.73-1.54-3.27-2.88-6.89,0q-4.02,12.705-8.05,25.42c0.77-.34,1.54-0.68,2.3-1.02,0.39-1.69.77-3.39,1.15-5.08h1.15c-3.62,24.36-24.08,73.95-36.76,84.4,4.43-18.08,13.03-22.58,16.08-42.71-0.77.34-1.53,0.68-2.3,1.01q-11.49,27.975-22.98,55.93c0.77-.34,1.54-0.68,2.3-1.02,1.15-1.69,2.3-3.39,3.45-5.08q-8.625,20.34-17.23,40.67c3.38-.54,2.92-3.79,4.59,0,1.15,2.04,2.3,4.07,3.45,6.11l-16.09,29.48c1.38-11.08,4.28-19.54,8.05-28.47-0.77-.68-1.54-1.35-2.3-2.03q-13.215,22.875-26.43,45.76c4.2-3.01,6.6-6.2,8.05-6.1h2.29c-0.38,1.01-.76,2.03-1.15,3.05q-27.57,42.69-55.14,85.41c-10.18,17.8-16.82,37.77-33.32,49.83-2.15-2.6.15-1.48-3.45-1.02-4.23,17.43-23.41,31.07-31.02,44.74,1.53-1.02,3.07-2.03,4.6-3.05-1.95,8.91-9.24,18.48-16.09,23.39,0.77-2.38,1.53-4.75,2.3-7.12-0.77.34-1.53,0.68-2.3,1.02q-5.16,8.13-10.34,16.27l3.45-2.04-26.43,38.64c-4.44-1.4-2.4-1.78-6.89,0-3.49,14.84-17.34,26.05-26.42,36.61,14.37-9.29,33.61-21.56,42.51-35.59l-8.05,6.1c3.87-7.62,12.43-11.32,14.94-19.32-2.82-1.99-.47-0.58-3.45-1.02,4.4-10.15,16.66-17.38,22.98-27.45l2.3,2.03c-0.38,1.02-.77,2.04-1.15,3.05q2.3-1.515,4.6-3.05,2.865-6.105,5.74-12.2l-3.45,1.02c14.54-24.93,46.28-77.29,72.38-92.54h1.15c-4.09,19.22-24.71,52.24-40.21,63.05,0.77-2.04,1.53-4.07,2.3-6.1-0.77.34-1.53,0.67-2.3,1.01l-19.53,30.51h4.6c1.26-4.47,1.17-3.88,4.59-6.1-6.72,19.83-23.14,31.01-32.17,42.71-7.73,10.02-12.86,25.38-21.83,36.6q-20.67,21.87-41.36,43.73c-13.13,14.89-21.94,35.46-39.06,46.77q2.3-5.085,4.6-10.17c-0.77.34-1.54,0.68-2.3,1.02q-4.605,6.105-9.19,12.2c1.53-1.02,3.06-2.03,4.59-3.05-4.05,12.85-14.88,26.31-28.72,30.51q3.45-4.575,6.89-9.16c-0.38-.67-0.76-1.35-1.15-2.03-0.76.68-1.53,1.36-2.29,2.03-9,4.06-31.52,34.51-42.51,42.71,1.15-2.03,2.3-4.07,3.44-6.1-1.14.68-2.29,1.36-3.44,2.03q-8.625,9.165-17.24,18.31c1.92-1.02,3.83-2.04,5.75-3.05v1.01c-28.87,35.43-71.01,70.41-111.44,98.64q-15.51,14.235-31.03,28.47-44.79,31.515-89.61,63.04,11.49-6.09,22.98-12.2-4.02,4.065-8.04,8.14-15.51,8.13-31.02,16.27c-0.74-3.7-.47-3.08-2.3-5.09-19.38,12.38-31.77,36.38-54,44.74q3.45-3.555,6.89-7.11c-11.95,2.38-58.83,31.57-66.63,40.67,3.84,2.24,1.74.3,0,4.07-16.79,3.96-21.74,16.51-35.62,18.3,0.63-4.81-2.58-2.62-9.19,0,0.38-1.02.77-2.03,1.15-3.05-6.67,1.93-44.39,20.44-36.77,25.42q-26.985,10.68-53.99,21.35-31.02,16.275-62.04,32.54-12.075,2.04-24.13,4.07c-6.02,2.37-6.6,7.25-14.94,9.15v-3.05q-8.61,2.04-17.23,4.07v1.02l6.89-1.02c-5.01,5.62-10.11,8.97-20.68,11.18-1.64-2.68-.29-1.23-3.44,0-14.46,20.14-59.59,24.97-86.17,34.58-0.77-.68-1.53-1.36-2.3-2.04q1.725-1.515,3.45-3.05c-18.61,6.15-37.4,13.9-54,20.34,0.77-1.02,1.53-2.03,2.3-3.05-29.18,8.72-56.35,22.5-88.47,28.47-5.06.94-5.26,6.33-6.89,7.12l-40.21,10.17c-0.38-.68-0.77-1.36-1.15-2.04v-1.01l4.59-2.04q-59.16,13.215-118.33,26.44,7.47-1.02,14.93-2.03c-0.76,1.01-1.53,2.03-2.29,3.05q-5.175.51-10.34,1.01l1.14,2.04,13.79-1.02h-2.3c-5.03,2.72-55.17,11.58-62.04,10.17-7.87-1.62-10.87-4.47-24.12-3.05l3.44-4.07q-11.49,1.53-22.97,3.05v1.02h8.04c-11.76,5.7-67.55,15.24-87.32,15.25,0.38-.68.77-1.35,1.15-2.03q7.47-2.04,14.94-4.07-22.98,2.04-45.96,4.07c1.8,1.62.37-.13,1.15,2.03l6.89,1.02c-45.77,2.13-116.09-1-167.74,9.15-25.26,4.97-52.41-9.72-68.93-3.05q2.3,1.02,4.59,2.03-18.945-2.025-37.91-4.06l14.94-2.04v-1.01q-47.685-1.53-95.36-3.05,14.355,1.005,28.72,2.03v1.02c-41.52,3.86-85.37-6.08-118.34-11.19l-49.4-1.02c-31.01-6.14-70.6-13.2-101.1-21.35-16.49-4.41-49.96-3.4-63.19-12.2,3.06,0.34,6.13.68,9.19,1.01q-59.73-13.725-119.48-27.45c-63.45-16.34-107.52-32.76-158.55-52.88q1.14,2.04,2.3,4.07-6.9-2.535-13.79-5.08c0.76,1.01,1.53,2.03,2.3,3.05q-13.215-9.15-26.43-18.31c-12.91-4.84-24.09-4.69-35.61-9.15-16.98-6.57-34.94-19.99-47.11-26.44q-24.69-8.13-49.4-16.26c-37.71-15.23-71.23-37.48-104.55-56.95q-16.665-9.15-33.32-18.3c1.49-2.9,1.73-.61,1.15-4.07-19.72-3.28-45.38-18.65-51.7-30.5-21.12-1.92-53.61-23.22-67.79-38.64,0.39-.34.77-0.68,1.15-1.02,1.92,0.68,3.83,1.35,5.75,2.03-10.6-12.7-26.51-14.67-35.62-21.35,2.3,0.68,4.6,1.35,6.9,2.03q-18.39-11.175-36.77-22.37c-8.7-5.81-14.21-17.07-20.68-21.35l-31.02-18.3q-25.275-22.89-50.55-45.76c-65.6-46.17-114.912-100.15-166.592-158.63-20.964-23.72-61.007-42.66-73.529-74.23,2.3,1.69,4.6,3.39,6.893,5.08q-10.338-13.215-20.68-26.43c1.149,0.34,2.3.67,3.447,1.01-9.352-16.6-25.68-27.71-37.914-41.69-8.527-9.74-14.383-26.87-22.978-35.59-7.051-7.15-20-17.34-27.573-29.49q3.445,1.53,6.893,3.05c-6.065-16.57-22.167-27.29-32.169-40.67q-22.976-40.155-45.956-80.33l1.149-1.02q2.873,1.53,5.745,3.05-5.745-9.15-11.489-18.3c1.148,2.37,2.3,4.75,3.446,7.12q-4.02-3.045-8.042-6.1-4.595-7.635-9.191-15.25,4.02,3.045,8.042,6.1l5.745,7.11c-15.281-25.86-35.771-46.18-44.807-78.29h-8.043q-9.191-22.38-18.382-44.74c-3.929.3-1.706,1.24-4.6-1.02-4.532-6.6.522-9-1.149-13.22-5.1-12.88-19.644-21.51-22.978-37.62,4.567-1.48,1-.4,3.447-6.1,1.3,7.92,5.852,16.11,12.638,19.32-17.136-41.09-36.314-80.17-50.551-126.09l-3.447-48.81c-4.554-22.99-12.951-27.39-6.894-49.83,4.544-16.83-19.584-53.05-11.488-62.02,3.732-22.28-29.568-77.62-19.532-99.65h1.149q4.021,14.22,8.042,28.47h1.149c-2.769-25.06-6.862-62.5-13.786-88.47q1.722-18.3,3.446-36.61C460.5,2020.82,456.581,1983.97,465.134,1965.73Zm3729.326,2.04c7.11,8.21-.04,41.66-4.6,49.82C4189.57,2003.7,4188.05,1977.81,4194.46,1967.77Zm-6.9,61.01c2.91,2.98,3.48,6.36,3.45,12.2h-1.15v-2.03Q4188.705,2033.865,4187.56,2028.78Zm-4.59,15.25c0.38,0.68.76,1.36,1.15,2.03C4183.73,2045.39,4183.35,2044.71,4182.97,2044.03Zm-3705.2,35.59v0Zm1.149,3.05v0Zm3691.409,25.42c0.38,0.68.76,1.36,1.15,2.04C4171.09,2109.45,4170.71,2108.77,4170.33,2108.09Zm-1.15,4.07v0Zm1.15,30.5c4.5,7.37-1.7,25.95-2.3,39.66-1.15-.68-2.3-1.35-3.45-2.03-0.39,12.88-4.54,21.02-6.89,31.52h-1.15q5.175-32.025,10.34-64.06c1.15,0.68,2.3,1.35,3.45,2.03v-7.12Zm-4.6,1.02c0.39,1.02.77,2.03,1.15,3.05h-1.15v-3.05ZM470.879,2184.35v0Zm1.149,4.07q1.722,4.575,3.446,9.15h-2.3Q472.6,2193,472.028,2188.42Zm3689.112,16.27c0.38,1.02.76,2.04,1.15,3.05h-1.15v-3.05Zm-36.77,20.34v0Zm-4.59,17.28v6.11h-1.15v-1.02C4119.01,2245.7,4119.39,2244.01,4119.78,2242.31Zm91.91,26.44v7.12h-1.15C4210.92,2273.5,4211.31,2271.13,4211.69,2268.75Zm24.13,0c-0.39,2.71-.77,5.43-1.15,8.14C4235.05,2274.18,4235.43,2271.46,4235.82,2268.75Zm-26.43,2.04c0.38,0.67.77,1.35,1.15,2.03C4210.16,2272.14,4209.77,2271.46,4209.39,2270.79Zm-2.3,6.1v0Zm26.43,0c0.38,1.01.76,2.03,1.15,3.05h-1.15v-3.05Zm-25.28,10.17c-0.25,1.49.48,1.02-1.15,3.05C4207.48,2289.09,4207.86,2288.07,4208.24,2287.06Zm-97.65,1.01c0.38,0.68.76,1.36,1.15,2.04C4111.35,2289.43,4110.97,2288.75,4110.59,2288.07Zm109.14,3.05c0.38,0.68.77,1.36,1.15,2.04C4220.5,2292.48,4220.11,2291.8,4219.73,2291.12Zm-3723.576,5.09c0.588,4.95,1.689,9.35,4.6,12.2v-3.05Zm3705.2,0c6.83,10.49-3.66,27.06-6.89,36.6h-1.15A88.894,88.894,0,0,1,4201.35,2296.21Zm-95.36,2.03v0Zm48.25,1.02c0.39,0.68.77,1.35,1.15,2.03C4155.01,2300.61,4154.63,2299.94,4154.24,2299.26Zm-3586.854,2.03c0.766,2.71,1.532,5.43,2.3,8.14h1.149v-3.05C569.684,2304.68,568.535,2302.99,567.386,2301.29Zm-70.083,9.15c0.242,13.16,12.372,40.19,14.936,48.81h1.149C513.792,2341.12,508.9,2318.59,497.3,2310.44Zm3605.237,0c2.33,4.87-.03,10.31-1.14,15.26h-1.15Q4101.39,2318.065,4102.54,2310.44Zm-3567.323,3.05q4.02,10.68,8.042,21.36v-2.04C546.9,2325.19,539.435,2317.73,535.217,2313.49Zm28.722,13.22,1.149,2.04Zm3535.161,1.02c0.38,0.68.76,1.36,1.15,2.03C4099.86,2329.09,4099.48,2328.41,4099.1,2327.73ZM547.855,2338.92q0.575,2.535,1.149,5.08h1.149C549.413,2340.3,549.689,2340.92,547.855,2338.92Zm3538.605,0c3.66,7.73-2.31,17.95-4.6,24.4h-1.15Q4083.59,2351.125,4086.46,2338.92Zm128.68,4.06,1.14,2.04Zm-96.51,1.02v4.07h1.15C4119.39,2346.71,4119.01,2345.35,4118.63,2344Zm-3570.775,6.1,2.3,10.17,1.148,1.02,2.3-2.04Q550.728,2354.675,547.855,2350.1Zm3569.625,0c0.38,1.69.77,3.39,1.15,5.08C4118.25,2353.49,4117.86,2351.79,4117.48,2350.1Zm-3608.688,1.02c0.383,0.67.766,1.35,1.149,2.03C509.558,2352.47,509.175,2351.79,508.792,2351.12Zm3645.448,4.06c0.39,0.68.77,1.36,1.15,2.04C4155.01,2356.54,4154.63,2355.86,4154.24,2355.18Zm-3578.812,2.04c0.383,0.68.766,1.35,1.149,2.03C576.194,2358.57,575.811,2357.9,575.428,2357.22Zm-59.742,1.02v0Zm3635.114,7.11v6.1h-1.15Q4150.22,2368.405,4150.8,2365.35Zm35.61,0c0.39,0.68.77,1.36,1.15,2.04C4187.18,2366.71,4186.8,2366.03,4186.41,2365.35Zm19.53,0-1.14,9.15h1.14v-2.03C4208.15,2369.19,4208.75,2368.01,4205.94,2365.35Zm-96.5,1.02h2.3C4109.73,2367.36,4111.48,2367.3,4109.44,2366.37Zm20.68,1.02c0.38,0.67.76,1.35,1.15,2.03C4130.88,2368.74,4130.5,2368.06,4130.12,2367.39Zm-52.85,3.05c0.38,0.67.76,1.35,1.15,2.03C4078.03,2371.79,4077.65,2371.11,4077.27,2370.44Zm62.04,0v0Zm36.76,2.03v0Zm-29.87,3.05c6.57,5.8-1.52,25.59-5.74,29.49h-1.15Q4142.76,2390.265,4146.2,2375.52Zm28.72,0v3.05c0.39-1.01.77-2.03,1.15-3.05h-1.15Zm28.73,0v0Zm-72.38,11.19c5.66,8.26-1.21,25.31-6.9,30.5C4122.04,2403.67,4128.57,2400.18,4131.27,2386.71Zm41.36,2.03v0Zm-1.15,4.07v0Zm-68.94,5.08v0Zm57.45,0v6.1h-1.15C4159.22,2401.96,4159.61,2399.93,4159.99,2397.89Zm-3570.775,1.02,4.6,8.13Zm3600.645,13.22c-0.77,2.71-1.53,5.42-2.3,8.13h1.15C4189.09,2417.55,4189.48,2414.84,4189.86,2412.13Zm-56.3,3.05c8.51,8-5.34,31.2-8.04,38.64h-1.15Q4128.975,2434.5,4133.56,2415.18Zm32.17,3.05c-5.43,33.24-21.05,51.46-26.42,77.28h1.15c0.76-1.36,1.53-2.71,2.3-4.07-0.39,2.37-.77,4.75-1.15,7.12,0.76-.34,1.53-0.68,2.29-1.02q5.175-10.665,10.34-21.35c-0.76,3.05-1.53,6.1-2.29,9.15h1.15C4156.75,2470.53,4172.78,2429.4,4165.73,2418.23Zm2.3,13.22c-0.38,1.69-.76,3.39-1.15,5.08h1.15v-5.08Zm-3563.879,1.01v0Zm1.149,3.06q2.3,4.575,4.6,9.15Q607.6,2440.095,605.3,2435.52Zm3501.84,1.01c0.38,0.68.77,1.36,1.15,2.04C4107.91,2437.89,4107.52,2437.21,4107.14,2436.53Zm-32.17,9.15c0.38,0.68.77,1.36,1.15,2.04C4075.74,2447.04,4075.35,2446.36,4074.97,2445.68Zm-1.15,2.04c0.38,1.01.77,2.03,1.15,3.05h-1.15v-3.05Zm96.51,7.12q-1.725,6.6-3.45,13.21c0.77-.33,1.53-0.67,2.3-1.01V2465C4171.05,2462.09,4171.96,2458.19,4170.33,2454.84Zm-51.7,6.1c0.38,1.01.76,2.03,1.15,3.05h-1.15v-3.05Zm-6.89,15.25c3.07,6.04-.55,11.36-4.6,14.23Q4109.435,2483.31,4111.74,2476.19ZM628.278,2493.48c4.119,11.46,8.743,24.82,18.382,31.52C642.7,2513.72,638.6,2499.19,628.278,2493.48Zm-87.317,1.01,1.149,2.04Zm3593.749,5.09v0Zm-107.99,2.03v0Zm70.08,0c0.38,0.68.77,1.36,1.15,2.03C4097.57,2502.97,4097.18,2502.29,4096.8,2501.61Zm52.85,0v3.05c0.38-1.02.76-2.03,1.15-3.05h-1.15Zm-54,2.03v0Zm41.36,0c-2.29,13.14-10.7,22.07-14.93,38.64,0.76-.34,1.53-0.67,2.29-1.01C4127.14,2533.12,4147.61,2514.11,4137.01,2503.64Zm-87.32,2.04v0Zm-14.93,3.05c0.38,0.68.76,1.35,1.15,2.03C4035.52,2510.08,4035.14,2509.41,4034.76,2508.73Zm112.59,1.01q-2.865,7.125-5.74,14.24l5.74-6.1v-8.14Zm-113.74,2.04c0.38,0.68.77,1.35,1.15,2.03C4034.38,2513.13,4033.99,2512.46,4033.61,2511.78Zm10.34,5.08c0.38,0.68.77,1.36,1.15,2.04C4044.72,2518.22,4044.33,2517.54,4043.95,2516.86Zm-1.15,3.05c0.38,0.68.77,1.36,1.15,2.04C4043.57,2521.27,4043.18,2520.59,4042.8,2519.91Zm-1.15,3.05c0.39,0.68.77,1.36,1.15,2.04C4042.42,2524.32,4042.04,2523.64,4041.65,2522.96Zm-2.3,4.07c0.39,0.68.77,1.36,1.15,2.03C4040.12,2528.39,4039.74,2527.71,4039.35,2527.03Zm-1.14,2.03,1.14,3.06h-1.14v-3.06Zm-1.15,3.06c0.38,1.01.76,2.03,1.15,3.05h-1.15v-3.05Zm-8.05,9.15v0Zm103.41,2.03v0Zm-12.64,5.08-3.45,10.17c1.15-.67,2.3-1.35,3.45-2.03v-8.14Zm5.74,9.16q-1.14,3.045-2.3,6.1c0.77-.34,1.54-0.68,2.3-1.02v-5.08Zm3.45,2.03v0Zm-21.83,12.2q-2.3,6.615-4.6,13.22c1.15-.68,2.3-1.35,3.45-2.03C4107.24,2579.05,4108.94,2575.74,4107.14,2571.77Zm-98.81,11.19c1.15,0.34,2.3.68,3.45,1.01q-2.3,2.04-4.59,4.07C4007.57,2586.35,4007.95,2584.65,4008.33,2582.96Zm110.3,0c-0.38,1.35-.77,2.71-1.15,4.06q1.725-1.515,3.45-3.05C4120.16,2583.64,4119.39,2583.3,4118.63,2582.96Zm-102.25,1.01v0Zm97.65,2.04c-0.76,2.37-1.53,4.74-2.29,7.12h2.29v-7.12Zm-98.8,1.01c-0.77,1.7-1.53,3.39-2.3,5.09,0.77-.34,1.53-0.68,2.3-1.02v-4.07Zm79.27,2.04q-1.725,8.64-3.44,17.29c1.14-.68,2.29-1.36,3.44-2.04C4095.25,2597.96,4098.04,2592.59,4094.5,2589.06Zm-37.91,2.03c-1.15,2.71-2.3,5.43-3.45,8.14C4056.72,2597.14,4057.85,2594.48,4056.59,2591.09Zm-74.68,3.05c-0.77,1.7-1.53,3.39-2.3,5.09,0.77-.34,1.53-0.68,2.3-1.02v-4.07Zm117.19,4.07c-0.39,2.03-.77,4.07-1.15,6.1h1.15v-6.1Zm24.12,1.02v6.1h-1.14Q4122.65,2602.27,4123.22,2599.23Zm-8.04,2.03c-0.76,1.7-1.53,3.39-2.3,5.09h1.15c0.77-.34,1.53-0.68,2.3-1.02C4115.95,2603.97,4115.56,2602.62,4115.18,2601.26Zm21.83,0h2.3q-2.3,8.64-4.6,17.29h-1.15Q4135.285,2609.91,4137.01,2601.26Zm-99.95,1.02q-1.155,3.555-2.3,7.12c0.76-.34,1.53-0.68,2.3-1.02v-6.1Zm-40.21,1.01v5.09c-1.92,2.03-3.83,4.07-5.75,6.1Q3993.98,2608.885,3996.85,2603.29Zm-3404.188,2.04c1.149,2.03,2.3,4.07,3.446,6.1-1.531-1.36-3.063-2.71-4.595-4.07C591.9,2606.68,592.279,2606.01,592.662,2605.33Zm3528.268,0c0.38,0.68.76,1.35,1.15,2.03C4121.69,2606.68,4121.31,2606.01,4120.93,2605.33Zm-17.24,4.07q-2.295,6.6-4.59,13.21C4102.47,2619.66,4105.69,2613.99,4103.69,2609.4Zm-3507.582,3.05c0.383,0.67.766,1.35,1.149,2.03C596.874,2613.8,596.491,2613.12,596.108,2612.45Zm-5.744,3.05c0.383,1.01.766,2.03,1.149,3.05h-1.149v-3.05Zm6.893,0c0.383,0.67.766,1.35,1.149,2.03C598.023,2616.85,597.64,2616.17,597.257,2615.5Zm3448.993,1.01c3.43,6.8-1.48,13.99-5.75,17.29Q4043.38,2625.16,4046.25,2616.51Zm-3447.844,1.02q9.191,15.255,18.383,30.51l-2.3-1.02C609.99,2636.3,600.586,2630.99,598.406,2617.53Zm-6.893,2.03,1.149,2.04Zm3482.307,0c-0.76,2.04-1.53,4.07-2.3,6.11h1.15C4073.06,2623.63,4073.44,2621.6,4073.82,2619.56Zm55.15,2.04c0.76,0.68,1.53,1.35,2.3,2.03-7.66,18.58-20.42,52.86-37.92,63.05,0.39-.68.77-1.36,1.15-2.04C4094.37,2674.89,4121.74,2634.13,4128.97,2621.6Zm-133.27,1.01q-1.725,3.57-3.45,7.12C3995.12,2627.55,3996.91,2625.59,3995.7,2622.61Zm74.67,4.07v0Zm42.51,3.05c-0.38,1.36-.76,2.71-1.14,4.07,1.14-1.02,2.29-2.03,3.44-3.05C4114.42,2630.41,4113.65,2630.07,4112.88,2629.73Zm-3513.325,7.12c0.383,0.68.766,1.36,1.149,2.03C600.321,2638.21,599.938,2637.53,599.555,2636.85Zm3435.205,1.02c0.38,0.68.76,1.35,1.15,2.03C4035.52,2639.22,4035.14,2638.55,4034.76,2637.87ZM600.7,2638.88l1.149,2.04Zm3478.866,2.04c-0.77,2.03-1.54,4.07-2.3,6.1,0.76-.34,1.53-0.68,2.3-1.02v-5.08Zm-104.55,2.03c0.78,3.64-.07,4.59-3.45,7.12C3972.72,2647.7,3973.87,2645.32,3975.02,2642.95Zm122.93,4.07c1.14,3.05.79,2.72-1.15,5.08C4097.18,2650.41,4097.57,2648.71,4097.95,2647.02Zm-3481.161,1.02q2.3,3.555,4.6,7.11c-0.766-.34-1.532-0.67-2.3-1.01Q617.939,2651.08,616.789,2648.04Zm3485.751,7.11c0.39,0.68.77,1.36,1.15,2.04C4103.31,2656.51,4102.93,2655.83,4102.54,2655.15Zm-3476.56,5.09c0.383,0.68.766,1.35,1.149,2.03C626.746,2661.59,626.363,2660.92,625.98,2660.24Zm3337.55,1.01c0.38,0.68.76,1.36,1.15,2.04C3964.29,2662.61,3963.91,2661.93,3963.53,2661.25Zm52.85,4.07v6.1h-1.15Q4015.8,2668.375,4016.38,2665.32Zm-3400.74,1.02c7.707,3.21,10.238,10.53,11.489,19.32-1.149-.68-2.3-1.36-3.447-2.03Q619.662,2674.975,615.64,2666.34Zm3320.31,8.13q-1.71,3.57-3.44,7.12C3935.38,2679.41,3937.16,2677.45,3935.95,2674.47Zm144.76,0c-0.38,1.36-.76,2.72-1.14,4.07C4081.32,2676.22,4081.66,2677.31,4080.71,2674.47Zm-78.12,10.17q-2.3,7.125-4.6,14.24h1.15C4000.84,2694.32,4004.06,2688.91,4002.59,2684.64Zm-51.7,2.04-3.45,7.11c0.77-.34,1.53-0.67,2.3-1.01C3950.12,2690.74,3950.51,2688.71,3950.89,2686.68Zm137.87,1.01c1.3,3.52-5.59,13.32-9.19,16.27-1.54-.34-3.07-0.68-4.6-1.01,0.77-.68,1.53-1.36,2.3-2.04C4080.33,2693.18,4084.49,2692.52,4088.76,2687.69Zm-3457.036,1.02a20.268,20.268,0,0,1,9.191,13.22c-1.914-1.36-3.829-2.71-5.744-4.07Zm3375.466,0c0.38,0.68.76,1.36,1.14,2.03C4007.95,2690.07,4007.57,2689.39,4007.19,2688.71Zm-52.85,1.02c-0.39,1.01-.77,2.03-1.15,3.05C3954.76,2690.6,3955.28,2692.23,3954.34,2689.73Zm79.27,0-3.45,9.15c0.77-.34,1.54-0.68,2.3-1.02C4032.84,2695.15,4033.23,2692.44,4033.61,2689.73Zm56.3,1.01c1.06,4.07-.48,7.02-3.45,10.17Zm-83.87,1.02c0.38,0.68.76,1.36,1.15,2.03C4006.8,2693.12,4006.42,2692.44,4006.04,2691.76Zm44.8,8.13q-4.02,12.72-8.04,25.43l3.45-2.04q5.16-10.17,10.34-20.33c-1.53,1.01-3.07,2.03-4.6,3.05C4051.61,2703.96,4051.23,2701.93,4050.84,2699.89Zm34.47,1.02c0.38,0.68.77,1.36,1.15,2.04C4086.08,2702.27,4085.69,2701.59,4085.31,2700.91Zm-3444.395,1.02c0.383,0.68.766,1.35,1.149,2.03C641.681,2703.28,641.3,2702.61,640.915,2701.93Zm3437.505,2.03c3.14,9.36-5.76,31.51-12.64,36.61-0.24-2.27.88-3.26-1.15-2.04-10.02,12.75-10.52,26.18-21.83,37.63C4040.64,2750.09,4065.29,2722.6,4078.42,2703.96Zm-42.51,1.02c-0.77,2.03-1.53,4.07-2.3,6.1,0.77-.34,1.53-0.68,2.3-1.02v-5.08Zm9.19,3.05q-2.88,7.62-5.75,15.25c0.77-.34,1.54-0.68,2.3-1.01C4043.24,2716.73,4047.09,2713.42,4045.1,2708.03Zm-110.3,4.07c0.39,0.67.77,1.35,1.15,2.03C3935.57,2713.45,3935.19,2712.77,3934.8,2712.1Zm55.15,2.03c-0.38,1.02-.76,2.03-1.15,3.05C3990.38,2715,3990.9,2716.63,3989.95,2714.13Zm21.83,4.07c-0.38,1.01-.76,2.03-1.15,3.05C4012.21,2719.07,4012.73,2720.7,4011.78,2718.2Zm-103.4,7.12-3.45,7.11C3907.81,2730.25,3909.59,2728.3,3908.38,2725.32Zm25.28,2.03c-0.77,2.03-1.54,4.07-2.3,6.1,0.76-.34,1.53-0.68,2.3-1.02v-5.08ZM654.7,2728.37c0.383,0.67.766,1.35,1.149,2.03C655.468,2729.72,655.085,2729.04,654.7,2728.37Zm3266.318,2.03c0.85,3.11.31,4.59-2.3,7.12-0.77-.34-1.53-0.68-2.3-1.02,1.15-1.02,2.3-2.03,3.45-3.05C3920.25,2732.43,3920.64,2731.42,3921.02,2730.4Zm48.25,16.27c-0.76,1.69-1.53,3.39-2.3,5.08,0.77-.34,1.54-0.67,2.3-1.01v-4.07ZM667.34,2748.7l1.149,2.04Zm3293.89,5.09c-2.98,6.21-6.31,7.26-6.89,16.27C3958.44,2766.94,3962.22,2757.99,3961.23,2753.79Zm2.3,3.05v2.03C3964.65,2757.1,3964.58,2758.65,3963.53,2756.84Zm91.91,11.18c0.38,1.02.77,2.04,1.15,3.05h-1.15v-3.05Zm-13.79,9.15c0.39,0.68.77,1.36,1.15,2.04C4042.42,2778.53,4042.04,2777.85,4041.65,2777.17Zm-3359.374,1.02,1.149,2.04Zm3351.334,1.02c-0.38,1.02-.77,2.03-1.15,3.05C4034.04,2780.08,4034.55,2781.71,4033.61,2779.21Zm-150.51,2.03h2.3q-1.725,3.06-3.44,6.1Q3882.53,2784.3,3883.1,2781.24Zm-3191.633,6.1h3.447q1.149,3.57,2.3,7.12c-1.148-.68-2.3-1.35-3.446-2.03C693,2790.73,692.233,2789.04,691.467,2787.34Zm3179,10.17c2.37,2,1.19.38,2.29,4.07q-1.71,2.025-3.44,4.07c-0.77-.34-1.53-0.68-2.3-1.02v-1.02Q3868.745,2800.565,3870.47,2797.51Zm4.59,12.2c-0.38,1.02-.76,2.04-1.15,3.05C3875.49,2810.58,3876.01,2812.22,3875.06,2809.71ZM717.892,2825.98c2.3,1.7,4.595,3.39,6.893,5.09C720.2,2829.63,720,2829.61,717.892,2825.98Zm3189.338,7.12c-1.15,2.37-2.3,4.75-3.45,7.12,0.77-.34,1.54-0.68,2.3-1.02C3906.47,2837.17,3906.85,2835.13,3907.23,2833.1Zm-63.19,7.12c1.19,4.78-2.47,8.43-6.89,11.18Q3840.6,2845.82,3844.04,2840.22Zm129.83,1.02c0.38,0.67.76,1.35,1.15,2.03C3974.63,2842.59,3974.25,2841.91,3973.87,2841.24Zm-59.75,3.05c0.39,0.67.77,1.35,1.15,2.03C3914.89,2845.64,3914.51,2844.96,3914.12,2844.29Zm-1.14,2.03c-0.26,1.49.47,1.02-1.15,3.05C3912.21,2848.35,3912.59,2847.34,3912.98,2846.32Zm-99.96,6.1c-0.76,1.7-1.53,3.39-2.3,5.09,1.54-1.7,3.07-3.39,4.6-5.09h-2.3Zm80.42,2.04c-0.38,1.01-.76,2.03-1.14,3.05,0.76-.68,1.53-1.36,2.29-2.04C3894.21,2855.13,3893.83,2854.79,3893.44,2854.46Zm-62.04,1.01c0.01,2.86-.16,3.62-3.44,6.1h-1.15Q3829.105,2858.525,3831.4,2855.47Zm-9.19,9.15c2.46,3.19,2.13,2.06-1.15,5.09C3821.45,2868.01,3821.83,2866.32,3822.21,2864.62Zm9.19,2.04q-2.3,3.045-4.59,6.1l3.45-2.04C3830.64,2869.37,3831.02,2868.01,3831.4,2866.66Zm82.72,6.1c-0.38,1.01-.76,2.03-1.14,3.05,0.76-.68,1.53-1.36,2.29-2.03C3914.89,2873.44,3914.51,2873.1,3914.12,2872.76Zm-33.31,1.02q-1.155,2.535-2.3,5.08c2.54-2.1,2.16-1.41,3.45-5.08h-1.15Zm-82.72,13.21c0.38,0.68.76,1.36,1.15,2.04C3798.85,2888.35,3798.47,2887.67,3798.09,2886.99Zm147.06,0,1.14,2.04Zm-3176.707,1.02c4,1.86,3.088.86,4.6,5.09l-2.3-1.02C769.975,2890.72,769.209,2889.37,768.443,2888.01Zm3190.487,1.02q-1.725,3.555-3.44,7.12h1.14C3959.09,2893.77,3960.17,2892.07,3958.93,2889.03ZM3890,2900.21q-5.745,7.635-11.49,15.26,4.02-3.06,8.04-6.11,2.295-4.065,4.6-8.13C3890.76,2900.89,3890.38,2900.55,3890,2900.21Zm27.57,18.31c0.38,0.67.77,1.35,1.15,2.03C3918.34,2919.87,3917.95,2919.19,3917.57,2918.52Zm-1.15,2.03c-0.25,1.49.48,1.02-1.15,3.05C3915.66,2922.58,3916.04,2921.57,3916.42,2920.55Zm3.45,3.05c-0.25,1.49.47,1.02-1.15,3.05C3919.1,2925.63,3919.49,2924.62,3919.87,2923.6Zm4.59,9.15q-2.865,3.555-5.74,7.12C3921.47,2938.21,3928.26,2934.06,3924.46,2932.75Zm-3128.443,2.04c0.766,0.67,1.532,1.35,2.3,2.03C796.106,2935.4,797.627,2936.72,796.017,2934.79Zm3114.663,3.05q-5.175,6.6-10.34,13.22C3903.25,2949.23,3913.02,2940.19,3910.68,2937.84ZM970.649,2941.9l-1.149,2.04q4.022,2.025,8.042,4.06Q974.1,2944.955,970.649,2941.9Zm2904.411,3.05q-1.14,2.04-2.3,4.07c1.15-1.02,2.3-2.03,3.45-3.05C3875.83,2945.63,3875.45,2945.29,3875.06,2944.95Zm4.6,2.04-11.49,17.28c0.76-.33,1.53-0.67,2.3-1.01C3873.55,2957.59,3880.59,2952.93,3879.66,2946.99Zm8.04,6.1c-7.28,7.82-18.47,19.25-27.57,25.42,0.38-1.69.76-3.39,1.15-5.08-1.15.67-2.3,1.35-3.45,2.03q-1.725,3.555-3.45,7.12c-4.76-2.45-3.37-.92-9.19,3.05q-6.315,11.175-12.64,22.37c-3.7-2.62.07-1.76-4.59-1.02-0.77,2.71-1.53,5.43-2.3,8.14l3.45-2.04c-7.84,20.48-28.04,22.05-39.07,34.58-8.99,10.21-8.86,23.57-24.12,29.48,0.38-1.01.76-2.03,1.15-3.05q4.02-3.045,8.04-6.1c-0.77.34-1.53,0.68-2.3,1.02,0.38-1.02.77-2.03,1.15-3.05-17.12,6.62-28.21,27.02-39.06,39.66-17.23,20.05-41.78,24.63-60.89,46.77,2.29-1.69,4.59-3.39,6.89-5.08,0.38,1.35.76,2.71,1.15,4.06-0.39.68-.77,1.36-1.15,2.04-24.52,8.58-38.01,30.29-54,46.77q-9.765,6.105-19.53,12.2c20.7-3.98,29.07-24.62,43.66-34.57q12.63-6.105,25.27-12.2l18.39-20.34c-0.39,1.02-.77,2.04-1.15,3.05,11.95-6.85,17.72-18.63,26.42-28.47q11.49-8.64,22.98-17.29l-3.45,1.02c0.39-1.01.77-2.03,1.15-3.05,23.8-4.23,60.16-59.08,85.02-76.26,1.75,3.93,3.69-1.13,9.19-5.09,6.43-13.37,21.84-35.94,34.47-44.74l-3.45,10.17h1.15v-2.03l11.49-9.15c-0.38,1.35-.77,2.71-1.15,4.06q2.295-1.515,4.6-3.05,3.435-5.595,6.89-11.18c-1.15.68-2.3,1.35-3.45,2.03-2.4,4.02-1.31,2.35-4.59,3.05v-1.02Q3884.245,2960.21,3887.7,2953.09Zm-2902.115,5.08c1.154,5.42,2.918,7.43,6.893,10.17Zm2830.885,4.07c0.38,0.68.76,1.36,1.15,2.03C3817.23,2963.6,3816.85,2962.92,3816.47,2962.24Zm-19.53,1.02c-0.39,1.35-.77,2.71-1.15,4.06,0.76-1.35,1.53-2.71,2.3-4.06h-1.15Zm98.8,4.06c-0.76,1.7-1.53,3.39-2.3,5.09C3896.11,2970.07,3896.83,2970.58,3895.74,2967.32Zm-31.02,1.02c-0.38.68-.76,1.36-1.15,2.04,0.77-.68,1.54-1.36,2.3-2.04h-1.15Zm-2868.795,3.05c0.766,1.7,1.532,3.39,2.3,5.09q5.17,1.515,10.337,3.05Q1002.245,2975.465,995.925,2971.39Zm2856.155,11.19c0.39,0.68.77,1.35,1.15,2.03C3852.85,2983.93,3852.47,2983.26,3852.08,2982.58Zm-2837.77,3.05q3.435,3.045,6.89,6.1Q1017.75,2988.685,1014.31,2985.63Zm2844.67,9.15v0Zm-12.64,2.03v4.07c-1.56,2.09-1.29,1.64-3.45,3.05Q3844.615,3000.375,3846.34,2996.81Zm-151.65,4.07c0.38,0.68.76,1.36,1.14,2.03C3695.45,3002.24,3695.07,3001.56,3694.69,3000.88Zm-2649.36,6.1q3.435,3.555,6.89,7.12c-1.91-1.02-3.83-2.03-5.74-3.05C1046.09,3009.69,1045.71,3008.34,1045.33,3006.98Zm-167.742,2.04c3.1,1.62,1.583.34,3.447,3.05Q879.312,3010.54,877.588,3009.02Zm2967.6,9.15c-0.38,1.35-.77,2.71-1.15,4.06h1.15c0.38-1.01.77-2.03,1.15-3.05C3845.96,3018.84,3845.57,3018.51,3845.19,3018.17Zm-44.81,41.69c-0.76,1.69-1.53,3.39-2.29,5.08,0.76-.34,1.53-0.68,2.29-1.02v-4.06Zm-27.57,1.01q-4.02,4.575-8.04,9.16C3768.37,3067.89,3773.81,3063.98,3772.81,3060.87Zm41.36,3.05c1.31,2.28,1.81,1.85-1.15,5.09h-1.15C3812.64,3067.31,3813.4,3065.62,3814.17,3063.92Zm-33.32,8.14c-0.76,1.69-1.53,3.39-2.3,5.08,0.77-.34,1.54-0.67,2.3-1.01v-4.07Zm-70.08,13.22-10.34,12.2q5.175-4.065,10.34-8.13v-4.07Zm70.08,6.1c-0.25,1.49.48,1.02-1.15,3.05C3780.09,3093.41,3780.47,3092.4,3780.85,3091.38Zm-47.1,4.07c-0.77,1.01-1.53,2.03-2.3,3.05C3735.06,3096.69,3733.15,3097.47,3733.75,3095.45Zm-3.45,6.1c-6.3,5.08-10.32,7.5-17.23,16.27Zm-85.02,11.18q-4.02,4.575-8.04,9.16C3642.09,3119.76,3646.05,3116.86,3645.28,3112.73Zm85.02,23.39c-1.53,2.03-3.06,4.07-4.59,6.1C3729.2,3139.93,3730.36,3138.92,3730.3,3136.12Zm-121.78,28.47c-0.38,1.02-.77,2.04-1.15,3.05l2.3-2.03C3609.28,3165.27,3608.9,3164.93,3608.52,3164.59Zm63.19,19.32-11.49,11.19C3665.32,3193.41,3673.06,3188.02,3671.71,3183.91Zm20.68,1.02h0Zm-8.04,5.08h2.29c-1.91,1.36-3.83,2.72-5.74,4.07Q3682.625,3192.055,3684.35,3190.01Zm-39.07,14.24q-2.865,3.555-5.74,7.12C3643.28,3209.05,3645.35,3207.19,3645.28,3204.25Zm11.49,5.08c-0.49.95,0.92,0.69-1.15,2.04C3656.01,3210.69,3656.39,3210.01,3656.77,3209.33Zm-50.55,5.09c-1.15,1.69-2.3,3.39-3.45,5.08C3605.94,3217.16,3606.24,3217.07,3606.22,3214.42Zm6.89,0c-1.15,1.35-2.29,2.71-3.44,4.07C3610.82,3217.13,3611.96,3215.77,3613.11,3214.42Zm19.53,0q-4.59,4.575-9.19,9.15Q3628.055,3219,3632.64,3214.42Zm18.39,0h2.3c-5.7,10.85-27.07,29.54-41.37,32.54,1.54-1.7,3.07-3.39,4.6-5.09C3630.37,3237.51,3643.29,3224.47,3651.03,3214.42Zm-66.64,19.32q-10.335,7.11-20.68,14.23v4.07C3574.15,3246.12,3588.66,3236.73,3584.39,3233.74Zm-8.04,1.01q-3.45,3.57-6.89,7.12,4.59-3.555,9.19-7.12h-2.3Zm-12.64,6.11c-1.91,2.03-3.83,4.06-5.74,6.1C3559.88,3244.92,3561.8,3242.89,3563.71,3240.86Zm41.36,8.13c2.83,4.88-14,16.32-19.53,18.3Zm-51.7,3.05q-12.06,11.19-24.13,22.37c9.38-4.98,21.88-12.23,25.28-22.37h-1.15Zm-26.42,9.15c-0.39.68-.77,1.36-1.15,2.04C3526.18,3262.55,3526.56,3261.87,3526.95,3261.19Zm-2354.09,11.19c4.39,1.34,2.38,0,4.59,3.05Q1175.155,3273.9,1172.86,3272.38Zm2267.92,3.05q-11.49,8.13-22.98,16.27c5.35,3.55-3.27,2.52-1.15,7.12,8.07-3.31,15.63-7.22,20.68-13.22-2.3.67-4.59,1.35-6.89,2.03,0.76-1.02,1.53-2.03,2.3-3.05C3437.04,3283.01,3442.15,3278.53,3440.78,3275.43Zm106.85,1.02c-0.39.67-.77,1.35-1.15,2.03,0.76-.68,1.53-1.36,2.3-2.03h-1.15Zm-26.43,2.03c-19.87,15.91-41.89,21.4-57.44,39.66q10.335-7.125,20.68-14.24c-1.53,2.03-3.07,4.07-4.6,6.1C3491.59,3304.8,3519.55,3288.4,3521.2,3278.48Zm-75.83,1.02c-1.14.67-2.29,1.35-3.44,2.03,0.38,0.68.76,1.36,1.15,2.03,1.53-1.35,3.06-2.71,4.59-4.06h-2.3Zm-2238.05,22.37h0Zm2.3,1.01c1.91,1.36,3.83,2.72,5.74,4.07C1213.45,3305.6,1211.53,3304.24,1209.62,3302.88Zm2190.95,5.09q-10.92,9.15-21.83,18.3,12.63-8.13,25.27-16.27C3399.9,3309.59,3404.34,3309.48,3400.57,3307.97Zm110.29,10.17h2.3c-1.53,1.35-3.06,2.71-4.6,4.06C3509.33,3320.85,3510.1,3319.49,3510.86,3318.14Zm-63.19,4.06-8.04,10.17c6.44-3.47,8.35-6.07,11.49-10.17h-3.45Zm-78.12,7.12q-8.625,5.085-17.24,10.17C3356.3,3338.56,3371.83,3330.29,3369.55,3329.32Zm55.14,1.02c-3.82,3.73-7.66,7.46-11.48,11.18,3.82-2.03,7.66-4.06,11.48-6.1v-5.08Zm63.19,3.05c2.35,1.83.82,0.01,2.3,3.05h-1.15c-0.76-.34-1.53-0.68-2.3-1.02C3487.12,3334.74,3487.5,3334.07,3487.88,3333.39Zm-10.34,5.08h2.3c-2.1,3.54-.97,2.74-5.74,4.07Zm-137.86,4.07c-1.54,1.69-3.07,3.39-4.6,5.08C3338.4,3345.92,3340.94,3345.58,3339.68,3342.54Zm129.82,1.02h2.3c-2.1,3.54-.97,2.73-5.75,4.06q1.725-1.515,3.45-3.05v-1.01Zm-60.89,3.05c-15.59,10.21-36.61,13.82-48.25,27.45,18.33-5.21,31.58-14.34,44.8-24.4C3406.09,3348.95,3411.79,3347.61,3408.61,3346.61Zm-81.57,2.03c-1.92,2.03-3.83,4.07-5.75,6.1l8.05-6.1h-2.3Zm112.59,14.24h3.45q-3.45,3.555-6.9,7.12c-5.63,2.02-7.44,4.14-14.93,5.08,0.38-.68.76-1.36,1.15-2.03Q3431.01,3367.965,3439.63,3362.88Zm-40.21,4.06c-0.38.68-.77,1.36-1.15,2.04,0.77-.68,1.53-1.36,2.3-2.04h-1.15Zm-5.75,3.06c-0.38.67-.76,1.35-1.14,2.03,0.76-.68,1.53-1.36,2.29-2.03h-1.15Zm10.34,7.11c-1.91,1.7-3.83,3.39-5.74,5.09C3401.44,3380.83,3405.8,3380.09,3404.01,3377.11Zm-59.74,4.07c-0.38.68-.76,1.36-1.15,2.03,0.77-.67,1.53-1.35,2.3-2.03h-1.15Zm43.66,3.05q-3.45,3.045-6.89,6.1C3384.42,3388.87,3389.49,3387.17,3387.93,3384.23Zm-54,1.02q-21.255,12.7-42.51,25.42C3302.42,3407.15,3335.72,3395.29,3333.93,3385.25Zm-89.61,7.12-8.04,8.13C3241.52,3399.2,3245.82,3396.64,3244.32,3392.37Zm116.04,6.1c0.08,1.83,1.31,1.25-2.3,3.05C3358.82,3400.5,3359.59,3399.48,3360.36,3398.47Zm-85.02,8.13q-4.605,3.555-9.19,7.12C3268.35,3412.77,3278.01,3407.84,3275.34,3406.6Zm85.02,0q2.295,1.53,4.59,3.05h-2.3c-3.36,2.29-5.26,2.85-11.49,3.05,0.39-.68.77-1.35,1.15-2.03C3357.29,3409.72,3357.71,3409.29,3360.36,3406.6Zm-85.02,5.09q-8.625,5.58-17.24,11.18C3261.33,3421.62,3278,3412.9,3275.34,3411.69Zm-11.49,10.16q-1.725,2.04-3.45,4.07c2.68-1.02,5.36-2.03,8.04-3.05Zm-20.68,10.17q-5.175,3.555-10.34,7.12,6.885-3.555,13.79-7.12h-3.45Zm-102.25,4.07-11.49,9.15q6.885-4.575,13.78-9.15h-2.29Zm160.84,1.02h4.6c-0.77,1.01-1.53,2.03-2.3,3.05-1.91.34-3.83,0.68-5.74,1.01C3299.46,3439.82,3300.61,3438.46,3301.76,3437.11Zm-17.23,9.15h3.45c-1.92,2.03-3.83,4.07-5.75,6.1l-3.45,1.02c1.92-2.04,3.83-4.07,5.75-6.1v-1.02Zm-85.02,4.07q-5.175,3.045-10.34,6.1,6.9-3.06,13.79-6.1h-3.45Zm-19.53,3.05c-1.15,1.35-2.3,2.71-3.45,4.06q4.02-2.025,8.04-4.06h-4.59Zm78.12,4.06h0Zm-24.12,11.19c2.13,2.62.09,1.61-2.3,3.05C3232.45,3470.66,3233.21,3469.65,3233.98,3468.63Zm-5.75,3.05h0Zm-106.84,1.02c-0.77,1.01-1.54,2.03-2.3,3.05,1.91-1.02,3.83-2.04,5.74-3.05h-3.44Zm101.1,0c-0.49.94,0.92,0.68-1.15,2.03C3221.72,3474.05,3222.11,3473.37,3222.49,3472.7Zm-94.21,1.01c-8.95,6.05-15.8,7.73-22.98,15.26C3112.89,3485.96,3126.21,3477.88,3128.28,3473.71Zm62.04,5.09h4.59v1.01C3193.38,3479.48,3191.85,3479.14,3190.32,3478.8Zm22.98,1.01h4.59c-0.76.34-1.53,0.68-2.29,1.02-1.54.34-3.07,0.68-4.6,1.02C3211.77,3481.17,3212.53,3480.49,3213.3,3479.81Zm-423.95,9.16c1.15,0.33,2.3.67,3.45,1.01C2791.65,3489.64,2790.5,3489.3,2789.35,3488.97Zm-4.59,1.01,3.45,1.02Zm381.43,0h5.75c-0.39.68-.77,1.36-1.15,2.04-1.15.34-2.3,0.67-3.45,1.01C3166.96,3492.02,3166.58,3491,3166.19,3489.98ZM2780.16,3491l3.45,1.02Zm-4.59,1.02c0.76,0.34,1.53.67,2.3,1.01C2777.1,3492.69,2776.33,3492.36,2775.57,3492.02Zm302.16,4.06c-1.92,1.36-3.83,2.72-5.75,4.07C3077.46,3498.88,3076.95,3498.6,3077.73,3496.08Zm-1113.28,2.04q6.885,2.535,13.78,5.08C1974.84,3499.69,1971.42,3498.61,1964.45,3498.12Zm773.2,2.03,3.45,1.02Zm-4.59,1.02c1.15,0.34,2.3.68,3.44,1.01C2735.36,3501.85,2734.21,3501.51,2733.06,3501.17Zm-5.75,1.01q-7.455,1.53-14.93,3.06v1.01q9.765-1.515,19.53-3.05v-1.02h-4.6Zm-19.53,4.07c0.77,0.34,1.53.68,2.3,1.02C2709.31,3506.93,2708.55,3506.59,2707.78,3506.25ZM2015,3509.3c-0.39.68-.77,1.36-1.15,2.04C2016.21,3510.45,2015.12,3511.36,2015,3509.3Zm673.25,0c0.77,0.34,1.53.68,2.3,1.02C2689.78,3509.98,2689.02,3509.64,2688.25,3509.3Zm-6.89,1.02-132.13,19.32c35.84,0.45,113.37-8.5,137.87-19.32h-5.74Zm-637.64,1.02c-3.06.67-6.13,1.35-9.19,2.03q8.04,1.02,16.08,2.03v-3.05C2048.32,3512.01,2046.02,3511.68,2043.72,3511.34Zm967.37,0c-0.76,1.01-1.53,2.03-2.3,3.05,4.38-.67,5.56-1.07,8.05-3.05h-5.75Zm111.44,4.06h4.6c-0.77,1.02-1.53,2.04-2.3,3.05l-5.74,1.02Q3120.815,3517.445,3122.53,3515.4Zm-111.44,1.02c-11.9,7.29-37.77,5.78-44.81,17.29q26.43-8.145,52.85-16.27Zm-859.37,10.17c1.14,1.02,2.29,2.03,3.44,3.05l5.75-1.02C2157.84,3527.94,2154.78,3527.27,2151.72,3526.59Zm942.09,1.02h0Zm-6.89,3.05h0Zm-711.17,1.01c-2.3,1.36-4.59,2.71-6.89,4.07v1.02l25.27-2.04Q2384.95,3533.205,2375.75,3531.67Zm41.36,0-3.45,1.02v1.02c4.63-.41,4.5-0.34,6.9-2.04h-3.45Zm665.21,0h4.6c-1.92.68-3.83,1.36-5.75,2.04C3081.56,3533.03,3081.94,3532.35,3082.32,3531.67Zm-869.71,1.02h0Zm256.2,0q-9.765,1.53-19.53,3.05,22.98-1.53,45.96-3.05h-26.43Zm-232.08,1.02c6.55,6.35,41,7.91,51.7,3.05Q2262.585,3535.23,2236.73,3533.71Zm719.21,0-5.74,5.08q4.59-2.535,9.19-5.08h-3.45Zm-559.51,2.03c-0.38.34-.76,0.68-1.15,1.02l2.3,2.03q12.63-1.02,25.28-2.03Zm668.66,1.02h0Zm-149.36,5.08c-1.91.68-3.83,1.36-5.74,2.04v1.01C2912.92,3544.47,2918.61,3544.31,2915.73,3541.84Zm110.3,6.1h4.59c-0.76,1.02-1.53,2.04-2.3,3.05h-5.74Q3024.305,3549.475,3026.03,3547.94Zm-26.43,1.02h2.3q-5.175,2.535-10.34,5.08Q2995.58,3551.505,2999.6,3548.96Zm14.94,7.12c0.76,0.68,1.53,1.35,2.3,2.03l-5.75,1.02v-1.02h2.3C3013.77,3557.43,3014.16,3556.76,3014.54,3556.08Zm-35.62,6.1,10.34,1.02h-10.34v-1.02Zm-155.1,3.05q-5.745,2.535-11.49,5.08v1.02h1.15q6.9-3.045,13.79-6.1h-3.45Zm136.72,3.05,5.74,1.02c-0.38.67-.76,1.35-1.14,2.03q-8.625,1.02-17.24,2.03c0.38-.67.77-1.35,1.15-2.03Q2954.8,3569.8,2960.54,3568.28Zm-64.34,6.1q-12.63,5.085-25.27,10.17,11.475-1.02,22.97-2.03v-1.02l-6.89,1.02c0.77-1.02,1.53-2.04,2.3-3.06q6.885-2.535,13.78-5.08h-6.89Zm6.89,3.05q-2.3,1.53-4.59,3.05h4.59v-3.05Zm28.73,1.02q4.59,1.515,9.19,3.05c-0.38.68-.77,1.35-1.15,2.03q-24.12,4.065-48.25,8.14Q2911.71,3585.055,2931.82,3578.45Zm-1106.39,2.03h0Zm5.74,1.02h0Zm60.89,7.12c0.77,0.34,1.54.67,2.3,1.01C1893.6,3589.29,1892.83,3588.96,1892.06,3588.62Zm947.85,6.1h2.29c-2.36,3.64-4.1,3.92-9.19,5.08-2.25-2.12-45.13,15.68-58.59,13.22,1.91-1.02,3.83-2.03,5.74-3.05-2.56-.21-3.68.78-2.29-1.02Q2808.875,3601.84,2839.91,3594.72Zm43.65,0c1.15,0.34,2.3.68,3.45,1.01v1.02C2883.54,3595.47,2885.64,3596.77,2883.56,3594.72Zm-971.96,5.08h0Zm4.59,1.02h0Zm908.78,3.05h0Zm-34.47,3.05c-0.76.34-1.53,0.68-2.29,1.02v1.01q2.865-1,5.74-2.03h-3.45Zm-19.53,7.12h0Zm-49.4,3.05c1.53,0.34,3.06.68,4.59,1.01C2724.63,3617.77,2723.1,3617.43,2721.57,3617.09Zm-43.66,5.08h0Zm11.49,1.02c4.18,0.65,3.48.41,5.74,2.03-10.08,1.86-25.86,9.36-35.61,4.07Q2674.455,3626.245,2689.4,3623.19Zm-87.32,7.12c-0.38.67-.76,1.35-1.15,2.03,1.15-.68,2.3-1.36,3.45-2.03h-2.3Zm-60.89,9.15c-0.76.34-1.53,0.68-2.3,1.02v1.01C2541.73,3640.09,2541.7,3641.6,2541.19,3639.46Zm-207.95,4.07h0Zm151.66,0h0Zm12.63,0c3.07,0.34,6.13.67,9.2,1.01C2503.66,3644.2,2500.6,3643.87,2497.53,3643.53Zm-240.12,1.01,16.09,2.04C2266.87,3646.81,2261.19,3646.54,2257.41,3644.54Zm25.28,0,9.19,2.04v1.01h-5.74C2283.96,3646.2,2284.26,3646.6,2282.69,3644.54Zm184.97,0h0Zm-16.08,1.02,13.78,1.02C2459.73,3647.25,2455.12,3648.63,2451.58,3645.56ZM3572.9,3897.74h-34.46c-2.29-18.56-30.23-30.53-48.26-17.29-18.55,13.62-27.36,104.01-2.3,116.94,8.6,6.76,28.28,5.22,42.51,4.07v-25.43h-13.78q0.57-18.3,1.15-36.6,34.455,0.51,68.93,1.01,2.295,45.255,4.59,90.5c-54.64,7.73-135.53,19.19-165.44-17.28-11.88-14.49-13.77-37.11-13.78-62.03-0.01-21.65-4.28-46.46,2.29-65.08,19.59-55.46,96.25-51.83,162-38.64Zm-1505.05,102.7v36.6h-60.9l-12.63-36.6h-60.89q-6.33,17.79-12.64,35.59-29.865.51-59.75,1.01v-36.6l14.94-1.02q28.14-78.285,56.3-156.59c7.58-6.18,56.98-1.01,65.48,1.01q27.57,78.3,55.15,156.6h14.94Zm181.52-102.7h-34.46c-4.32-28.3-50.91-25.5-60.9-4.07-12.65,27.15-9.56,98.34,16.09,107.79,24.24,8.93,53.28-4.76,73.53-8.14q6.315,15.255,12.64,30.51c-50.94,12.29-128.13,29.53-157.4-14.24-9.15-13.67-10.34-34.63-10.34-55.93-0.01-24.46-3.75-55.77,4.59-74.23,20.34-45.01,100.7-44.24,159.7-31.52Zm321.69-57.96c53.91-.95,97.21,4.65,112.6,37.62,6.5,13.94,5.74,33.31,5.74,52.88,0,53.06-5.03,92.18-49.4,105.75-16.28,4.97-40.83,4.81-58.6,2.03-65.52-10.25-80.42-34.29-80.42-101.68,0-19.52-1.95-41.44,4.6-55.93C2517.99,3852.97,2544.13,3854.18,2571.06,3839.78Zm1112.14,0c56.49-.99,99.58,5.45,113.74,41.69,5.53,14.15,4.59,32.46,4.59,50.84,0,53.6-6.67,93.08-54,104.73-14.12,3.48-39.68,3.43-55.14,1.02-65.62-10.23-79.28-35.39-79.28-102.7,0-21.11-1.45-43.65,5.75-58.98C3630.7,3851.16,3658.12,3853.17,3683.2,3839.78Zm-2371.33,121v76.26c-20.84.33-39.9,2.55-57.44-1.01q-1.155-78.8-2.3-157.61h-13.79c-0.28-12.16-1.17-27.56,2.3-36.61,60.55-.94,146.73-8.98,173.48,23.39,7.17,8.67,9.23,22.84,9.19,37.62C1423.18,3956.32,1373.23,3961.74,1311.87,3960.78Zm423.94,0v76.26h-59.74V3878.42h-13.78v-36.61c58.09-.89,147.47-9.78,173.48,21.35,7.94,9.51,10.42,23.1,10.34,39.66C1845.84,3956.29,1797.29,3961.74,1735.81,3960.78Zm-514.7,39.66v36.6q-31.02-.495-62.04-1.01-6.315-17.79-12.64-35.59l-59.74,1.02q-6.315,17.79-12.64,35.58h-60.89v-36.6h14.93q28.725-79.3,57.45-158.63l66.63,1.02q27.585,78.8,55.15,157.61h13.79Zm422.79,0v36.6h-59.74q-6.885-18.3-13.79-36.6l-60.89,1.02q-6.315,17.79-12.64,35.58H1437.1v-36.6h14.94q28.71-79.3,57.44-158.63l65.49,1.02q27.57,78.8,55.15,157.61h13.78Zm635.34-158.63h86.17v36.61h-12.64v41.69h55.15v-41.69h-13.79v-36.61h86.17q0.57,18.3,1.15,36.61h-13.79v122.02h13.79q-0.57,18.3-1.15,36.6h-86.17v-36.6h13.79v-42.71h-55.15v42.71h13.79q-0.57,18.3-1.15,36.6h-86.17v-36.6h13.79V3878.42h-13.79v-36.61Zm724.96,158.63v36.6h-59.74q-6.9-18.3-13.79-36.6h-59.74q-6.9,18.3-13.79,36.6H2797.4v-36.6h14.93q28.725-79.3,57.45-158.63l65.48,1.02q27.57,78.8,55.15,157.61h13.79Zm18.38-158.63q46.53,1.02,93.06,2.03,18.375,45.255,36.77,90.5c1.14-.67,2.29-1.35,3.44-2.03q20.685-45.24,41.36-90.5h88.47v36.61h-13.79v158.62H3215.6q-1.155-62.01-2.3-124.05-17.235,40.155-34.47,80.33l-51.7-1.02q-17.235-41.685-34.47-83.38v128.12h-56.29V3878.42h-13.79v-36.61Zm283.78,0,87.31,1.02v35.59h-13.78v122.02h13.78v36.6h-87.31v-36.6h13.78V3878.42h-13.78v-36.61Zm-716.91,34.57c-7.05,4.15-16.28,5.74-20.68,12.21-7.08,10.37-5.75,28.53-5.75,44.74,0,35.12,3.14,89.51,52.85,64.06C2628.99,3965.3,2650.08,3877.8,2589.45,3876.38Zm1112.13,0c-7.06,3.69-16.23,5.28-20.68,11.19-18.04,23.92-6.94,107.59,16.08,115.92,14.73,3.91,26.25-3.91,34.47-9.15C3739.52,3958.72,3759.51,3877.8,3701.58,3876.38Zm-2389.71,2.04v48.81c27.46,1.07,62.12-2.19,54-30.51C1361.07,3879.98,1336.77,3877.45,1311.87,3878.42Zm423.94,0v48.81c27.32,1.09,63.25-2.67,52.85-32.54C1783.32,3879.33,1759.71,3877.47,1735.81,3878.42Zm-195.31,33.55q-8.61,25.425-17.23,50.85h35.61C1556.91,3950.68,1549.89,3919.19,1540.5,3911.97Zm441.18,50.85-14.94-50.85h-2.29q-8.625,25.425-17.24,50.85h34.47Zm919.12-50.85q-8.04,25.425-16.09,50.85h34.47v-1.02Q2909.985,3936.885,2900.8,3911.97Zm-1783.09,2.04q-8.04,23.895-16.09,47.79h33.32v-1.02C1129.47,3946.19,1129.6,3923.15,1117.71,3914.01Z"/>
</svg>
